<?xml version="1.0" standalone="no"?>
<!DOCTYPE svg PUBLIC "-//W3C//DTD SVG 20010904//EN"
 "http://www.w3.org/TR/2001/REC-SVG-20010904/DTD/svg10.dtd">
<svg version="1.0" xmlns="http://www.w3.org/2000/svg"
 width="551.000000pt" height="552.000000pt" viewBox="0 0 551.000000 552.000000"
 preserveAspectRatio="xMidYMid meet">

<g transform="translate(0.000000,552.000000) scale(0.100000,-0.100000)"
fill="#000000" stroke="none">
<path d="M0 2755 l0 -2755 2755 0 2755 0 0 2755 0 2755 -2755 0 -2755 0 0
-2755z m467 2520 c32 21 43 8 43 -52 0 -40 -2 -43 -27 -45 -16 -1 -37 -1 -48
0 -11 1 -30 2 -42 3 -19 1 -23 7 -23 36 0 19 5 43 11 54 10 19 12 19 35 4 24
-15 27 -15 51 0z m4223 -5 c24 -24 26 -57 3 -82 -33 -37 -103 -11 -103 39 0
28 33 63 60 63 11 0 29 -9 40 -20z m-4085 -50 c0 -31 -3 -35 -27 -38 -27 -3
-28 -1 -28 38 0 39 1 41 28 38 24 -3 27 -7 27 -38z m155 25 c0 -8 6 -12 13
-10 8 4 12 -6 13 -27 1 -29 0 -30 -12 -13 -13 17 -14 17 -14 1 0 -9 -4 -14
-10 -11 -5 3 -10 22 -10 41 0 19 5 34 10 34 6 0 10 -7 10 -15z m61 -18 c0 -19
2 -19 11 6 12 33 25 35 31 5 4 -23 4 -23 15 2 9 22 11 22 11 5 1 -27 -10 -65
-18 -65 -4 0 -12 12 -18 28 -10 24 -11 25 -12 5 -1 -23 -16 -39 -24 -26 -3 5
-8 23 -12 42 -5 23 -4 31 4 27 6 -4 11 -17 12 -29z m3087 2 c14 0 14 -2 2 -6
-8 -3 -18 -11 -22 -17 -4 -6 -7 3 -7 19 0 17 3 24 6 18 2 -7 12 -13 21 -14z
m858 5 c-3 -8 -2 -12 4 -9 6 3 10 0 10 -7 0 -8 -9 -14 -20 -14 -13 0 -19 5
-15 14 3 7 5 18 5 23 0 5 5 9 11 9 6 0 8 -7 5 -16z m64 -9 c0 -14 -4 -25 -10
-25 -5 0 -7 7 -4 15 4 8 1 15 -5 15 -6 0 -11 -8 -12 -17 0 -13 -2 -14 -6 -4
-3 8 2 20 13 28 24 17 24 17 24 -12z m47 -12 c-3 -10 -5 -4 -5 12 0 17 2 24 5
18 2 -7 2 -21 0 -30z m-4212 -3 c0 -16 -6 -26 -18 -28 -19 -4 -32 20 -23 44 9
25 41 13 41 -16z m60 0 c0 -29 -32 -41 -41 -16 -9 24 4 48 23 44 12 -2 18 -12
18 -28z m192 -17 c-3 -10 -5 -2 -5 17 0 19 2 27 5 18 2 -10 2 -26 0 -35z m45
40 c-10 -4 -9 -8 4 -17 9 -7 14 -18 10 -24 -9 -15 -36 -16 -36 -1 0 5 5 7 10
4 6 -3 10 -2 10 3 0 6 -7 13 -16 16 -19 7 -9 26 14 25 11 0 13 -2 4 -6z m76
-10 c2 -8 -5 -13 -18 -13 -12 0 -18 -4 -15 -10 4 -6 11 -8 16 -5 5 4 9 1 9 -5
0 -25 -35 -4 -38 23 -3 25 0 28 19 25 12 -2 24 -9 27 -15z m2930 -14 c-3 -8
-7 -3 -11 10 -4 17 -3 21 5 13 5 -5 8 -16 6 -23z m110 6 c-3 -3 -9 2 -12 12
-6 14 -5 15 5 6 7 -7 10 -15 7 -18z m769 -7 c-3 -7 -5 -2 -5 12 0 14 2 19 5
13 2 -7 2 -19 0 -25z m73 8 c0 -7 -7 -13 -15 -13 -8 0 -15 4 -15 9 0 4 5 8 11
8 5 0 7 5 3 12 -4 7 -3 8 4 4 7 -4 12 -13 12 -20z m49 -4 c0 -14 -2 -13 -8 3
-8 19 -8 19 -19 0 -10 -17 -11 -17 -12 -3 0 16 19 29 33 21 4 -2 7 -12 6 -21z
m-982 -4 c-3 -8 -6 -5 -6 6 -1 11 2 17 5 13 3 -3 4 -12 1 -19z m50 0 c-3 -8
-6 -5 -6 6 -1 11 2 17 5 13 3 -3 4 -12 1 -19z m300 0 c-3 -8 -6 -5 -6 6 -1 11
2 17 5 13 3 -3 4 -12 1 -19z m20 0 c-3 -8 -6 -5 -6 6 -1 11 2 17 5 13 3 -3 4
-12 1 -19z m90 0 c-3 -8 -6 -5 -6 6 -1 11 2 17 5 13 3 -3 4 -12 1 -19z m-2370
-460 c-3 -7 -5 -2 -5 12 0 14 2 19 5 13 2 -7 2 -19 0 -25z m27 2 c-6 -6 -10
-3 -10 10 0 13 4 16 10 10 7 -7 7 -13 0 -20z m33 -2 c-3 -7 -5 -2 -5 12 0 14
2 19 5 13 2 -7 2 -19 0 -25z m80 0 c-3 -7 -5 -2 -5 12 0 14 2 19 5 13 2 -7 2
-19 0 -25z m50 0 c-3 -7 -5 -2 -5 12 0 14 2 19 5 13 2 -7 2 -19 0 -25z m33 12
c0 -11 -4 -20 -8 -20 -4 0 -8 9 -8 20 0 11 4 20 8 20 4 0 8 -9 8 -20z m40 10
c0 8 2 11 5 8 7 -7 -5 -38 -15 -38 -4 0 -10 9 -13 21 -4 16 -3 18 9 8 11 -9
14 -9 14 1z m37 -22 c-3 -7 -5 -2 -5 12 0 14 2 19 5 13 2 -7 2 -19 0 -25z m70
13 c0 -11 -7 -17 -14 -14 -9 4 -9 8 0 19 16 17 16 17 14 -5z m73 10 c0 -3 -4
-12 -9 -19 -6 -11 -9 -9 -13 5 -3 12 0 20 8 20 8 0 14 -3 14 -6z m27 -23 c-3
-7 -5 -2 -5 12 0 14 2 19 5 13 2 -7 2 -19 0 -25z m33 6 c0 -8 -4 -14 -8 -14
-4 0 -8 9 -8 19 0 11 4 17 8 15 4 -3 8 -12 8 -20z m47 -6 c-3 -7 -5 -2 -5 12
0 14 2 19 5 13 2 -7 2 -19 0 -25z m44 12 c6 0 7 5 4 10 -3 6 -1 10 4 10 21 0
6 -33 -16 -37 -8 -2 -13 7 -12 20 0 12 3 16 6 10 2 -7 9 -13 14 -13z m72 -5
c-7 -21 -13 -19 -13 6 0 11 4 18 10 14 5 -3 7 -12 3 -20z m23 -12 c-11 -11
-17 4 -9 23 7 18 8 18 11 1 2 -10 1 -21 -2 -24z m31 5 c-3 -7 -5 -2 -5 12 0
14 2 19 5 13 2 -7 2 -19 0 -25z m63 12 c9 -16 8 -18 -5 -14 -8 4 -15 12 -15
20 0 20 7 17 20 -6z m180 10 c6 9 10 11 10 3 0 -7 -9 -17 -20 -23 -17 -9 -20
-8 -20 12 0 19 2 20 10 8 9 -13 11 -13 20 0z m37 -22 c-3 -7 -5 -2 -5 12 0 14
2 19 5 13 2 -7 2 -19 0 -25z m58 22 c-3 -5 -1 -10 4 -10 6 0 11 -4 11 -8 0 -4
-8 -8 -19 -8 -12 0 -17 6 -13 18 2 10 9 18 14 18 5 0 6 -4 3 -10z m48 -10 c-3
-11 -7 -20 -9 -20 -2 0 -4 9 -4 20 0 11 4 20 9 20 5 0 7 -9 4 -20z m87 0 c0
-13 -5 -18 -15 -14 -11 5 -12 9 -2 20 16 18 17 17 17 -6z m27 -12 c-3 -7 -5
-2 -5 12 0 14 2 19 5 13 2 -7 2 -19 0 -25z m73 8 c0 -7 -7 -13 -15 -13 -15 0
-20 18 -9 30 9 9 24 -2 24 -17z m27 -8 c-3 -7 -5 -2 -5 12 0 14 2 19 5 13 2
-7 2 -19 0 -25z m33 6 c0 -8 -4 -14 -8 -14 -4 0 -8 9 -8 19 0 11 4 17 8 15 4
-3 8 -12 8 -20z m-1380 -208 c0 -35 3 -71 6 -80 4 -12 0 -16 -15 -16 -20 0
-21 5 -21 80 0 64 3 80 15 80 12 0 15 -14 15 -64z m760 -15 l0 -79 -42 0 c-53
-1 -68 11 -68 54 0 40 33 69 62 53 16 -8 18 -6 18 21 0 20 5 30 15 30 12 0 15
-15 15 -79z m680 53 c0 -16 5 -24 13 -21 29 11 47 -13 47 -63 0 -61 -18 -67
-22 -8 -2 31 -8 44 -20 46 -15 3 -18 -4 -18 -42 0 -34 -4 -46 -15 -46 -12 0
-15 16 -15 80 0 64 3 80 15 80 9 0 15 -10 15 -26z m200 16 c0 -5 -4 -10 -10
-10 -14 0 -12 -27 3 -34 10 -5 10 -7 0 -12 -8 -3 -13 -24 -13 -50 0 -32 -4
-44 -15 -44 -11 0 -15 12 -15 44 0 26 -5 47 -12 50 -10 5 -10 7 0 12 6 3 12
14 12 23 0 10 3 21 7 24 10 11 43 8 43 -3z m-1950 -15 c0 -10 -11 -15 -35 -15
-24 0 -35 -5 -35 -15 0 -10 10 -15 30 -15 20 0 30 -5 30 -15 0 -10 -10 -15
-30 -15 -20 0 -30 -5 -30 -15 0 -10 11 -15 35 -15 24 0 35 -5 35 -15 0 -11
-12 -15 -50 -15 l-50 0 0 75 0 75 50 0 c38 0 50 -4 50 -15z m1234 9 c30 -11
16 -25 -21 -22 -50 4 -51 -20 -3 -36 62 -20 50 -86 -15 -86 -35 0 -64 23 -45
35 6 4 17 1 25 -5 8 -7 22 -10 30 -6 26 9 17 34 -15 41 -17 4 -35 15 -40 25
-13 24 -13 26 6 44 16 16 50 21 78 10z m-992 -48 c12 -17 9 -71 -4 -84 -7 -7
-22 -12 -35 -12 -16 0 -23 -6 -23 -20 0 -11 -7 -20 -15 -20 -12 0 -15 15 -15
74 0 74 0 75 28 78 32 4 54 -1 64 -16z m186 -4 c30 -38 3 -92 -48 -92 -52 0
-66 91 -17 109 26 10 47 4 65 -17z m210 -21 c3 -18 -2 -21 -33 -21 -25 0 -35
-4 -32 -12 2 -7 16 -13 30 -13 40 0 37 -20 -4 -23 -44 -4 -62 15 -57 60 6 62
87 70 96 9z m152 29 c11 -11 20 -31 20 -44 0 -13 3 -31 6 -39 4 -12 -5 -14
-48 -13 -49 1 -53 3 -53 25 0 19 8 27 34 36 22 7 31 14 23 19 -7 4 -21 4 -32
1 -25 -8 -26 10 -2 24 24 15 29 14 52 -9z m581 -17 c13 -34 13 -33 -32 -33
-28 0 -39 -4 -36 -12 2 -7 18 -12 36 -11 44 2 34 -21 -11 -25 -31 -3 -37 1
-47 27 -16 36 -6 70 22 80 31 12 57 2 68 -26z m113 3 c18 -87 20 -83 -34 -84
-34 0 -50 4 -54 14 -9 24 4 41 35 48 16 3 29 11 29 17 0 7 -10 9 -25 7 -33 -7
-43 10 -14 21 33 11 58 2 63 -23z m206 4 c0 -5 -14 -7 -31 -3 -30 6 -30 5 -27
-28 3 -30 6 -34 31 -32 39 3 30 -21 -10 -25 -38 -4 -55 17 -51 60 4 38 40 63
70 47 10 -5 18 -14 18 -19z m368 2 c30 -38 3 -92 -48 -92 -52 0 -66 91 -17
109 26 10 47 4 65 -17z m-1996 2 c16 -16 18 -16 24 0 3 9 12 16 20 16 18 0 18
-9 -2 -31 -15 -17 -15 -20 0 -43 9 -14 16 -28 16 -31 0 -12 -24 -4 -36 13 -13
16 -15 16 -25 0 -5 -10 -17 -18 -25 -18 -13 0 -13 4 2 29 16 28 16 31 0 55
-19 30 -3 36 26 10z m468 6 c0 -5 -9 -12 -20 -15 -16 -5 -20 -15 -20 -46 0
-28 -4 -39 -15 -39 -11 0 -15 13 -15 54 l0 54 35 0 c19 0 35 -4 35 -8z m404
-12 c11 -43 7 -88 -8 -88 -10 0 -16 14 -18 42 -2 31 -8 44 -20 46 -15 3 -18
-4 -18 -42 0 -34 -4 -46 -15 -46 -12 0 -15 13 -15 55 l0 55 44 0 c37 0 45 -4
50 -22z m656 12 c0 -5 -9 -12 -20 -15 -16 -5 -20 -15 -20 -46 0 -28 -4 -39
-15 -39 -11 0 -15 13 -15 54 l0 54 35 0 c19 0 35 -4 35 -8z m570 0 c0 -5 -9
-12 -20 -15 -16 -5 -20 -15 -20 -46 0 -28 -4 -39 -15 -39 -11 0 -15 13 -15 54
l0 54 35 0 c19 0 35 -4 35 -8z m-1470 -237 l0 -46 23 21 c30 28 58 30 32 2
-16 -18 -16 -20 5 -55 17 -27 18 -35 7 -35 -8 0 -22 11 -31 25 -18 28 -36 25
-36 -6 0 -10 -4 -19 -10 -19 -6 0 -10 33 -10 80 0 47 4 80 10 80 6 0 10 -21
10 -47z m505 37 c45 -17 56 -97 18 -135 -20 -20 -67 -19 -85 3 -44 51 -26 119
39 141 1 1 13 -3 28 -9z m473 -2 c-6 -18 -28 -21 -28 -4 0 9 7 16 16 16 9 0
14 -5 12 -12z m62 -14 c0 -20 4 -25 16 -20 30 12 54 -12 54 -53 0 -47 -13 -59
-62 -59 l-38 0 0 79 c0 64 3 79 15 79 9 0 15 -10 15 -26z m-1787 -59 c22 -63
23 -75 10 -75 -8 0 -17 9 -20 20 -4 14 -14 20 -33 20 -20 0 -31 -6 -35 -20 -3
-11 -12 -20 -20 -20 -10 0 -8 17 12 75 19 57 29 75 43 75 14 0 24 -18 43 -75z
m443 48 c5 -17 3 -28 -4 -31 -8 -2 -7 -10 3 -26 13 -19 13 -25 -1 -44 -12 -17
-25 -22 -60 -22 l-44 0 0 75 0 75 50 0 c46 0 50 -2 56 -27z m514 17 c0 -5 -4
-10 -10 -10 -5 0 -10 -22 -10 -50 0 -27 5 -50 10 -50 6 0 10 -7 10 -15 0 -10
-10 -15 -29 -15 -31 0 -49 14 -31 25 13 8 13 105 0 105 -5 0 -10 5 -10 10 0 6
16 10 35 10 19 0 35 -4 35 -10z m660 -50 l0 -60 30 0 c20 0 30 -5 30 -15 0
-11 -12 -15 -45 -15 l-45 0 0 75 c0 60 3 75 15 75 12 0 15 -13 15 -60z m-1496
24 c12 -5 16 -20 16 -60 0 -30 -4 -54 -10 -54 -5 0 -10 20 -10 45 0 38 -3 45
-20 45 -17 0 -20 -7 -20 -45 0 -33 -4 -45 -15 -45 -11 0 -15 13 -15 54 0 52 1
55 28 59 15 2 28 5 29 6 1 0 8 -2 17 -5z m436 -14 c36 -36 14 -100 -35 -100
-31 0 -45 19 -45 62 0 55 42 76 80 38z m122 3 c38 -34 13 -103 -37 -103 -42 0
-61 66 -28 102 20 22 41 23 65 1z m398 -3 c16 -25 12 -100 -5 -100 -11 0 -15
12 -15 45 0 38 -3 45 -20 45 -17 0 -20 -7 -20 -45 0 -33 -4 -45 -15 -45 -11 0
-15 13 -15 53 0 30 2 56 4 58 11 11 78 2 86 -11z m272 -27 c2 -35 7 -48 18
-48 10 0 17 14 20 45 7 61 24 53 28 -14 l3 -54 -38 0 c-21 0 -44 5 -50 10 -13
11 -18 90 -6 101 15 16 22 4 25 -40z m151 35 c24 4 22 -14 -3 -21 -16 -4 -20
-14 -20 -46 0 -30 -4 -41 -15 -41 -11 0 -15 13 -15 53 0 57 6 71 24 59 6 -3
19 -5 29 -4z m225 -51 c2 -46 0 -57 -13 -57 -12 0 -15 13 -15 61 0 81 24 77
28 -4z m213 53 c25 0 24 -16 -1 -23 -16 -4 -20 -14 -20 -46 0 -30 -4 -41 -15
-41 -12 0 -15 13 -15 61 0 52 2 60 16 55 9 -3 24 -6 35 -6z m101 -2 c21 -17
31 -108 12 -108 -8 0 -16 11 -20 25 -6 26 -28 33 -39 14 -4 -6 2 -13 14 -16
25 -6 18 -23 -9 -23 -29 0 -44 35 -24 54 8 9 24 16 35 16 10 0 19 5 19 11 0 6
-10 10 -22 9 -37 -3 -41 -1 -28 15 15 18 41 19 62 3z m78 3 c0 -5 9 -7 20 -4
11 3 20 1 20 -5 0 -5 -9 -12 -20 -15 -16 -4 -20 -14 -20 -46 0 -30 -4 -41 -15
-41 -11 0 -15 13 -15 53 0 30 3 57 7 60 9 10 23 9 23 -2z m81 -18 c5 -16 12
-35 15 -43 4 -10 11 0 21 28 15 42 33 57 32 25 0 -10 -10 -45 -23 -78 -17 -45
-28 -61 -44 -63 -25 -4 -30 13 -7 21 12 5 11 14 -5 63 -23 65 -24 74 -10 74 6
0 15 -12 21 -27z m-1999 -24 l14 -42 12 42 c7 22 19 41 27 41 11 0 9 -14 -9
-67 -22 -64 -47 -96 -63 -80 -4 5 -1 12 6 16 11 7 10 20 -7 70 -16 48 -18 61
-7 61 7 0 20 -19 27 -41z m-221 -330 c-18 -7 -22 -15 -19 -34 3 -13 1 -22 -3
-19 -24 15 0 65 31 63 9 0 5 -4 -9 -10z m44 -40 c-4 -5 -1 -18 7 -27 11 -15
11 -16 -3 -4 -9 7 -25 9 -35 6 -15 -5 -14 -2 4 11 16 12 21 23 17 38 -5 19 -5
20 5 4 6 -9 8 -22 5 -28z m96 -1 c-3 -24 -6 -27 -9 -13 -2 11 -9 26 -14 33 -8
9 -5 12 9 12 16 0 19 -5 14 -32z m76 -15 c-3 -10 -5 -2 -5 17 0 19 2 27 5 18
2 -10 2 -26 0 -35z m20 0 c-3 -10 -5 -2 -5 17 0 19 2 27 5 18 2 -10 2 -26 0
-35z m141 35 c6 9 13 7 29 -8 15 -14 23 -16 26 -7 3 7 6 7 6 1 1 -5 -6 -19
-14 -30 -14 -18 -14 -18 -15 6 0 18 -3 21 -9 11 -6 -10 -13 -10 -29 -2 -15 8
-22 8 -25 -2 -3 -6 -6 -3 -6 9 -1 26 10 38 21 22 6 -10 10 -10 16 0z m219 -40
c-2 -13 -4 -5 -4 17 -1 22 1 32 4 23 2 -10 2 -28 0 -40z m-98 15 c0 -25 -1
-26 -9 -8 -12 27 -12 35 0 35 6 0 10 -12 9 -27z m-325 2 c-4 -8 -10 -15 -15
-15 -5 0 -9 7 -9 15 0 8 7 15 15 15 9 0 12 -6 9 -15z m23 -17 c-3 -7 -5 -2 -5
12 0 14 2 19 5 13 2 -7 2 -19 0 -25z m116 16 c-3 -9 -14 -12 -32 -8 -21 5 -23
3 -11 -6 13 -10 13 -11 0 -7 -8 2 -16 11 -18 19 -2 12 5 16 32 16 25 0 33 -4
29 -14z m160 2 c6 -16 -1 -26 -17 -26 -6 0 -4 5 4 10 10 6 11 10 3 10 -7 0
-13 5 -13 10 0 15 17 12 23 -4z m103 4 c-2 -3 -6 -14 -10 -25 -8 -19 -8 -19
-17 3 -10 26 -26 29 -32 5 -4 -14 -5 -12 -6 4 -1 20 3 23 33 20 19 -1 33 -4
32 -7z m-1816 -440 c0 -5 -8 -10 -17 -10 -15 0 -13 -4 7 -20 23 -18 24 -20 9
-36 -13 -12 -21 -14 -35 -5 -18 10 -17 10 4 11 12 0 22 5 22 10 0 6 -7 10 -15
10 -21 0 -31 30 -14 41 19 12 39 11 39 -1z m272 -47 c-7 -36 -12 -27 -11 20 0
30 3 36 8 23 4 -11 6 -30 3 -43z m135 14 c1 -36 0 -37 -17 -22 -17 15 -19 15
-23 -2 -3 -10 -5 1 -6 25 -1 40 1 43 22 40 18 -2 22 -10 24 -41z m225 3 c2
-22 0 -40 -4 -40 -5 0 -8 18 -8 40 0 22 2 40 4 40 2 0 6 -18 8 -40z m43 -11
c0 -16 -3 -29 -6 -29 -9 0 -19 53 -12 63 9 14 18 -3 18 -34z m-607 8 c2 -11
-3 -17 -15 -18 -17 0 -16 -1 1 -8 14 -5 16 -10 7 -15 -13 -9 -41 10 -41 28 0
16 22 37 35 33 5 -2 11 -11 13 -20z m63 -9 c5 -21 3 -27 -12 -31 -10 -3 -23 1
-30 9 -9 11 -6 16 12 23 19 8 20 10 6 10 -10 1 -15 6 -12 12 11 16 28 5 36
-23z m51 14 c-7 -2 -12 -12 -12 -23 0 -10 -4 -19 -10 -19 -11 0 -14 43 -4 53
3 3 13 3 22 -1 10 -4 12 -7 4 -10z m53 8 c4 -6 1 -9 -6 -8 -7 2 -14 -4 -16
-14 -3 -10 3 -18 14 -20 12 -2 14 -6 6 -11 -19 -12 -45 21 -33 44 12 21 25 25
35 9z m71 -4 c3 -8 4 -22 2 -31 -2 -12 -7 -7 -15 14 -6 18 -7 31 -2 31 5 0 12
-6 15 -14z m162 2 c18 -18 15 -28 -10 -29 -22 -2 -22 -2 1 -6 18 -4 21 -7 11
-13 -20 -12 -40 0 -40 24 0 35 16 46 38 24z m62 1 c0 -5 -4 -7 -10 -4 -17 11
-11 -7 8 -21 14 -11 15 -15 3 -23 -8 -5 -21 -6 -30 -3 -14 6 -13 7 2 10 17 4
17 4 1 16 -9 7 -14 18 -10 24 9 15 36 16 36 1z m47 -36 c6 -2 13 8 16 24 4 28
4 28 6 -3 0 -21 -5 -34 -15 -38 -24 -9 -34 2 -33 37 1 29 2 30 8 8 4 -14 12
-26 18 -28z m159 35 c5 -8 2 -9 -9 -5 -10 3 -17 2 -17 -3 0 -6 7 -10 15 -10
19 0 20 -26 2 -33 -8 -3 -20 -1 -28 4 -10 6 -8 9 11 9 l25 1 -24 10 c-19 8
-21 12 -11 24 15 18 26 19 36 3z m3544 1 c0 -6 9 -8 20 -4 12 4 20 2 20 -5 0
-6 -5 -8 -12 -4 -8 5 -9 2 -4 -11 5 -15 4 -16 -8 -6 -10 8 -16 9 -21 1 -11
-18 -25 -11 -25 15 0 16 6 25 15 25 8 0 15 -5 15 -11z m83 -16 c19 -17 20 -17
14 0 -4 9 -2 17 4 17 24 0 2 -33 -23 -36 -22 -2 -28 2 -28 17 0 24 8 24 33 2z
m70 1 c-4 -11 -8 -12 -13 -4 -6 9 -9 9 -13 -1 -4 -10 -6 -9 -6 4 -1 11 6 17
19 17 14 0 18 -5 13 -16z m31 1 c-4 -8 -8 -15 -10 -15 -2 0 -4 7 -4 15 0 8 4
15 10 15 5 0 7 -7 4 -15z m23 -7 c-3 -8 -6 -5 -6 6 -1 11 2 17 5 13 3 -3 4
-12 1 -19z m39 10 c5 -7 3 -8 -6 -3 -10 6 -12 4 -6 -11 5 -14 4 -16 -5 -7 -6
6 -8 16 -5 22 9 14 13 14 22 -1z m58 -3 c-4 -8 -8 -15 -10 -15 -2 0 -4 7 -4
15 0 8 4 15 10 15 5 0 7 -7 4 -15z m-500 -11 c3 -8 2 -12 -4 -9 -6 3 -10 10
-10 16 0 14 7 11 14 -7z m114 -9 c-3 -3 -9 2 -12 12 -6 14 -5 15 5 6 7 -7 10
-15 7 -18z m-2866 -500 c-3 -272 -6 -320 -23 -294 -6 9 -9 10 -9 2 0 -7 -7
-10 -16 -6 -13 5 -13 8 -2 15 8 6 -1 7 -25 3 -21 -3 -45 -12 -53 -20 -18 -18
-2 -20 25 -3 15 9 26 9 48 -1 26 -13 27 -14 8 -22 -13 -5 -15 -8 -5 -8 10 -1
11 -4 4 -9 -14 -9 -14 -45 0 -54 7 -5 4 -8 -6 -8 -14 0 -18 8 -18 35 0 19 -5
35 -10 35 -6 0 -8 -10 -5 -22 3 -13 1 -29 -4 -37 -8 -12 -12 -12 -25 -2 -9 8
-16 21 -17 30 -1 9 -4 5 -9 -9 -8 -24 -8 -23 -9 8 -1 43 -17 41 -29 -5 l-10
-38 -1 33 c-1 21 -6 32 -15 32 -17 0 -18 -41 -1 -52 6 -5 3 -8 -7 -8 -11 0
-18 7 -18 18 0 9 -5 24 -11 32 -8 11 -9 7 -4 -17 4 -21 3 -33 -4 -33 -6 0 -11
5 -11 12 0 9 -3 9 -12 0 -18 -18 -38 -15 -39 6 0 14 -2 14 -7 2 -10 -22 -44
-24 -59 -4 -12 16 -13 16 -13 1 0 -9 -4 -17 -10 -17 -16 0 -12 67 4 73 11 4
13 1 9 -11 -5 -14 -4 -15 8 -6 8 6 24 14 37 17 17 4 22 1 23 -16 1 -18 2 -18
6 -4 2 10 12 16 21 15 12 -2 18 5 19 22 1 17 0 19 -4 6 -4 -15 -7 -16 -14 -5
-8 12 -11 12 -19 -1 -9 -13 -10 -13 -11 0 -1 8 0 19 1 25 1 5 -2 7 -6 3 -4 -4
-14 -2 -22 5 -12 9 -16 9 -19 0 -3 -7 -12 -13 -21 -12 -11 0 -12 2 -4 6 15 6
16 33 1 33 -5 0 -7 -4 -4 -10 4 -6 -12 -9 -40 -8 l-46 2 1 156 c2 281 2 270
-19 270 -11 0 -27 -10 -35 -22 -15 -22 -16 -21 -14 22 3 41 6 45 36 54 24 7
32 14 32 33 l0 23 243 -2 242 -3 -3 -260z m-1104 228 c-10 -2 -26 -2 -35 0
-10 3 -2 5 17 5 19 0 27 -2 18 -5z m79 1 c-3 -3 -12 -4 -19 -1 -8 3 -5 6 6 6
11 1 17 -2 13 -5z m40 0 c-3 -3 -12 -4 -19 -1 -8 3 -5 6 6 6 11 1 17 -2 13 -5z
m46 -1 c-7 -2 -19 -2 -25 0 -7 3 -2 5 12 5 14 0 19 -2 13 -5z m60 0 c-7 -2
-21 -2 -30 0 -10 3 -4 5 12 5 17 0 24 -2 18 -5z m-443 -22 c0 -5 -8 -11 -17
-14 -10 -2 -27 -8 -37 -13 -14 -5 -17 -4 -12 5 13 21 66 39 66 22z m2481 -17
c-40 -17 -40 -25 1 -17 22 4 29 3 24 -5 -4 -7 -12 -12 -18 -12 -6 0 -19 -7
-29 -16 -16 -14 -17 -13 -17 20 0 29 5 37 27 44 38 14 49 2 12 -14z m1669 0
c-38 -17 -40 -17 -40 -5 0 11 52 30 64 23 5 -2 -6 -11 -24 -18z m-2509 1 c-42
-19 -47 -19 -31 0 7 8 24 15 39 15 25 -1 25 -1 -8 -15z m1674 1 c-16 -7 -32
-11 -35 -9 -8 7 24 23 45 22 15 0 13 -3 -10 -13z m-3127 -33 c3 -30 1 -33 -22
-33 -23 0 -26 4 -26 36 0 31 3 35 23 32 17 -2 23 -11 25 -35z m77 -3 c5 -22 3
-25 -20 -25 -28 0 -29 3 -15 41 12 30 25 24 35 -16z m59 24 c8 -22 8 -26 -3
-19 -5 3 -12 -5 -14 -17 -3 -15 -5 -9 -6 15 -1 38 12 50 23 21z m26 -21 c0
-23 -4 -33 -9 -27 -9 8 -4 64 5 64 2 0 4 -17 4 -37z m-355 7 c-3 -5 -11 -10
-17 -10 -6 0 -20 -7 -30 -17 -10 -9 -18 -11 -18 -5 0 13 39 42 58 42 7 0 10
-4 7 -10z m1670 0 c-3 -5 -11 -10 -17 -10 -6 0 -20 -7 -30 -17 -10 -9 -18 -11
-18 -5 0 13 39 42 58 42 7 0 10 -4 7 -10z m306 -11 c28 -11 61 -59 65 -96 2
-23 -10 -31 -21 -13 -10 16 -25 12 -25 -7 0 -15 2 -16 10 -3 6 10 10 11 10 3
0 -7 9 -13 21 -13 14 0 19 5 16 15 -7 17 9 30 18 15 3 -5 20 -10 36 -10 27 0
29 -2 18 -21 -9 -17 -17 -20 -45 -16 -29 5 -34 3 -34 -14 0 -10 -5 -19 -11
-19 -5 0 -8 4 -4 9 3 5 1 12 -4 15 -10 7 -24 -40 -16 -54 3 -5 1 -17 -6 -27
-8 -14 -8 -27 4 -56 9 -20 21 -37 26 -37 24 0 9 -28 -16 -33 -31 -6 -42 5 -44
43 -2 32 -2 32 6 53 5 13 2 17 -13 17 -27 0 -52 10 -52 21 0 5 8 9 18 9 14 0
15 2 2 10 -9 6 -11 10 -3 10 7 0 10 7 7 15 -4 8 -1 15 6 15 10 0 9 4 -1 16
-10 12 -27 15 -78 11 -36 -2 -76 -7 -88 -11 -16 -6 -23 -3 -28 14 -6 17 -12
20 -36 15 l-29 -7 0 57 c0 55 1 57 23 51 12 -3 29 -6 39 -6 11 0 15 -6 11 -20
-4 -14 0 -20 13 -21 11 -1 35 -3 54 -5 37 -3 64 12 53 28 -12 20 -8 53 7 60
16 8 51 3 91 -13z m1369 17 c0 -3 -13 -11 -30 -20 -32 -15 -42 -4 -12 13 17
11 42 14 42 7z m835 -6 c-3 -5 -11 -10 -17 -10 -6 0 -20 -7 -30 -17 -10 -9
-18 -11 -18 -5 0 13 39 42 58 42 7 0 10 -4 7 -10z m-681 -45 c8 -51 3 -65 -25
-65 -16 0 -19 7 -19 39 0 81 33 100 44 26z m67 13 c6 -54 0 -78 -22 -78 -19 0
-21 5 -21 35 0 64 3 75 21 75 14 0 20 -9 22 -32z m44 10 l7 -23 7 25 7 25 7
-25 c12 -45 8 -90 -8 -90 -8 0 -16 8 -16 18 -1 16 -2 16 -6 0 -10 -38 -23 -15
-22 37 2 57 12 71 24 33z m62 -10 c-3 -7 -5 -2 -5 12 0 14 2 19 5 13 2 -7 2
-19 0 -25z m66 20 c-7 -13 -8 -18 -11 -70 -1 -16 -7 -28 -13 -28 -6 0 -8 11
-4 28 3 16 1 41 -4 55 -10 25 -9 27 15 27 18 0 23 -4 17 -12z m524 -20 c-3 -8
-6 -5 -6 6 -1 11 2 17 5 13 3 -3 4 -12 1 -19z m33 7 c0 -8 -4 -15 -10 -15 -5
0 -10 7 -10 15 0 8 5 15 10 15 6 0 10 -7 10 -15z m55 6 c3 -5 1 -12 -5 -16 -5
-3 -10 1 -10 9 0 18 6 21 15 7z m35 -6 c0 -8 -4 -15 -10 -15 -5 0 -7 7 -4 15
4 8 8 15 10 15 2 0 4 -7 4 -15z m98 4 c-2 -6 -8 -10 -13 -10 -5 0 -11 4 -13
10 -2 6 4 11 13 11 9 0 15 -5 13 -11z m39 -4 c0 -8 -4 -15 -9 -15 -4 0 -8 7
-8 15 0 8 4 15 8 15 5 0 9 -7 9 -15z m30 0 c0 -8 -4 -15 -9 -15 -4 0 -8 7 -8
15 0 8 4 15 8 15 5 0 9 -7 9 -15z m43 0 c0 -8 -4 -15 -8 -15 -5 0 -9 7 -9 15
0 8 4 15 9 15 4 0 8 -7 8 -15z m-170 1 c0 -2 -8 -10 -17 -17 -16 -13 -17 -12
-4 4 13 16 21 21 21 13z m-4312 -88 c3 -46 2 -48 -23 -48 -25 0 -25 -1 -10
-29 l15 -29 -40 15 c-44 18 -50 28 -20 38 16 5 20 15 20 56 0 49 1 50 28 47
25 -3 27 -7 30 -50z m76 36 c4 -9 1 -22 -5 -30 -7 -9 -7 -18 1 -33 6 -13 7
-21 1 -21 -5 0 -13 9 -16 20 -3 11 -11 20 -16 20 -5 0 -9 -9 -9 -20 0 -11 -4
-20 -10 -20 -5 0 -10 23 -10 50 0 48 1 50 29 50 17 0 31 -6 35 -16z m71 -34
c0 -41 -2 -45 -25 -45 -21 0 -26 5 -28 33 -5 47 4 64 30 60 20 -3 23 -9 23
-48z m38 10 c4 -24 4 -23 12 8 4 17 11 32 15 32 4 0 11 -15 15 -32 8 -31 8
-32 12 -8 5 29 23 52 23 30 0 -8 -5 -32 -11 -52 -11 -40 -29 -51 -29 -19 0 11
-4 23 -10 26 -5 3 -10 -3 -10 -14 0 -36 -19 -32 -29 6 -6 21 -11 45 -11 53 0
22 18 -1 23 -30z m117 13 l14 -28 4 28 c6 46 22 30 22 -23 0 -57 -8 -62 -32
-22 l-17 27 -1 -27 c0 -16 -4 -28 -10 -28 -5 0 -10 23 -10 50 0 56 10 63 30
23z m3137 -149 c-2 -13 -1 -24 4 -24 4 0 10 21 12 48 3 46 3 46 5 -11 2 -55 1
-58 -20 -55 -21 3 -23 8 -21 53 2 39 0 45 -7 25 -4 -14 -11 -37 -14 -52 -9
-38 -26 -35 -27 5 -1 17 -1 36 0 41 1 4 -4 14 -10 22 -9 11 -7 14 14 14 18 0
28 7 33 22 6 19 8 16 21 -22 8 -24 13 -54 10 -66z m-667 51 c0 6 5 2 11 -8 8
-14 8 -22 -1 -30 -8 -9 -10 -8 -5 6 9 22 -3 22 -27 0 -18 -16 -18 -16 -12 0 3
9 1 17 -4 17 -6 0 -13 -8 -15 -17 -3 -13 -5 -11 -6 6 -1 20 2 22 24 17 20 -5
23 -3 19 11 -5 15 -4 16 5 3 6 -8 11 -10 11 -5z m756 -43 c1 -50 -15 -76 -17
-29 l-2 22 -4 -22 c-2 -13 -8 -23 -13 -23 -4 0 -7 8 -5 18 2 9 4 34 4 55 1 31
4 38 19 35 13 -3 17 -14 18 -56z m45 46 c0 -10 2 -10 6 0 11 29 23 8 23 -43 0
-30 -4 -55 -10 -55 -5 0 -11 8 -11 18 -1 16 -2 16 -6 0 -10 -37 -23 -16 -23
37 0 30 5 55 10 55 6 0 10 -6 11 -12z m-1055 -19 c-31 -25 -33 -39 -5 -39 14
0 19 5 16 14 -3 8 1 17 10 20 11 5 14 2 9 -10 -3 -8 -6 -20 -6 -25 0 -15 -50
-10 -57 6 -6 18 23 55 45 55 9 0 5 -8 -12 -21z m-2579 -25 c18 -14 31 -29 28
-34 -14 -23 39 -100 75 -108 18 -4 31 -23 24 -34 -8 -12 14 -10 36 4 15 10 22
9 38 -5 10 -9 22 -14 25 -10 4 3 7 -3 7 -15 0 -16 -4 -20 -17 -15 -10 4 -21
11 -25 17 -5 7 -8 3 -9 -9 -1 -13 -4 -9 -8 10 -7 28 -7 28 -15 -17 -6 -38 -11
-48 -27 -48 -10 0 -19 -4 -19 -10 0 -5 -10 -10 -22 -9 -21 0 -21 1 -4 8 26 10
5 23 -32 20 -15 -1 -35 1 -44 5 -15 7 -15 11 -2 41 19 45 18 46 -11 33 -14 -6
-28 -8 -33 -4 -9 10 -16 206 -6 206 4 0 22 -12 41 -26z m2743 10 c0 -7 6 -15
13 -17 6 -3 2 -6 -10 -6 -12 -1 -28 5 -35 12 -25 23 -44 20 -23 -4 19 -21 19
-22 1 -12 -12 6 -24 7 -30 2 -6 -5 -24 -19 -39 -30 -27 -21 -28 -22 -10 -42
18 -19 18 -20 -4 -8 -28 14 -28 19 -6 51 10 14 18 29 19 35 0 5 2 15 2 22 3
16 122 13 122 -3z m-2611 -28 c-3 -3 -11 5 -18 17 -13 21 -12 21 5 5 10 -10
16 -20 13 -22z m46 24 c3 -5 0 -7 -9 -4 -11 4 -16 -3 -19 -28 l-4 -33 -1 38
c-2 26 2 37 12 37 8 0 18 -4 21 -10z m79 2 c2 -4 -4 -8 -14 -8 -10 0 -16 4
-14 8 3 4 9 8 14 8 5 0 11 -4 14 -8z m82 -49 c-3 -3 -9 3 -13 13 -6 17 -8 17
-14 -6 -6 -21 -7 -19 -8 14 l-1 39 21 -27 c12 -15 19 -30 15 -33z m-260 10
c-3 -7 -1 -13 4 -13 6 0 10 -11 10 -25 0 -29 -34 -36 -44 -9 -13 33 -7 60 14
60 13 0 19 -5 16 -13z m101 -5 c2 -17 0 -19 -7 -8 -5 8 -6 18 -4 22 8 12 10
10 11 -14z m83 -3 c0 -8 -9 -15 -20 -15 -11 0 -20 4 -20 10 0 5 7 7 15 4 8 -4
15 -1 15 5 0 6 2 11 5 11 3 0 5 -7 5 -15z m3060 -10 c0 -8 -4 -17 -10 -20 -6
-4 -10 5 -10 20 0 15 4 24 10 20 6 -3 10 -12 10 -20z m907 0 c-8 -20 -27 -20
-27 1 0 8 5 12 10 9 6 -3 10 -1 10 6 0 7 3 10 6 6 4 -3 4 -13 1 -22z m-1537
-7 c6 -17 9 -18 9 -6 1 10 9 16 21 15 14 -1 20 -8 20 -27 0 -18 -3 -21 -9 -11
-5 8 -16 11 -25 8 -8 -3 -18 -2 -21 3 -9 14 -45 7 -46 -10 0 -10 -3 -9 -8 5
-9 22 9 41 21 22 5 -8 9 -6 14 6 8 23 13 22 24 -5z m81 13 c-11 -7 -10 -10 4
-18 16 -9 15 -11 -4 -16 -17 -4 -21 -1 -21 19 0 16 6 24 18 24 13 0 14 -2 3
-9z m1559 -10 c0 -3 -20 -7 -45 -9 -48 -2 -63 14 -17 20 31 4 62 -1 62 -11z
m117 -5 c-3 -6 -11 -9 -18 -7 -8 2 -31 4 -51 4 -21 0 -38 4 -38 10 0 5 9 7 20
4 11 -3 20 -2 20 2 0 4 16 5 35 3 21 -3 34 -9 32 -16z m106 8 c-5 -14 -19 -19
-38 -14 -5 2 -21 2 -35 2 -22 -1 -23 0 -9 11 24 18 89 19 82 1z m-4342 -46
c-5 -13 -12 -23 -17 -23 -5 -1 -18 -6 -29 -12 -11 -6 -28 -7 -39 -4 -15 6 -10
12 30 33 61 33 65 33 55 6z m4069 11 c0 -6 7 -9 15 -6 8 4 17 2 20 -2 8 -14
-7 -71 -17 -65 -6 4 -7 -2 -3 -16 4 -12 3 -20 -1 -17 -5 3 -9 -9 -10 -26 -1
-32 -1 -32 10 -7 6 14 17 30 25 36 8 6 11 16 7 22 -4 6 -2 21 4 32 13 24 68
28 76 5 4 -8 9 -13 13 -11 4 3 7 -4 7 -14 0 -14 -4 -16 -17 -9 -25 13 -29 11
-29 -11 0 -11 -4 -20 -10 -20 -5 0 -7 7 -4 15 4 9 0 15 -9 15 -9 0 -14 -10
-14 -24 0 -14 -8 -32 -17 -42 -9 -9 -19 -29 -22 -43 -3 -15 -15 -33 -27 -40
-18 -11 -20 -11 -9 0 6 7 12 24 12 37 0 21 -2 22 -15 8 -8 -8 -15 -23 -15 -33
0 -10 -4 -24 -9 -31 -12 -19 -5 56 8 91 6 16 11 37 11 49 0 11 9 31 20 45 11
15 17 29 14 32 -4 3 -9 0 -11 -7 -4 -10 -8 -10 -19 -1 -10 8 -17 7 -29 -4 -11
-12 -12 -16 -2 -20 6 -2 -3 -11 -20 -21 -38 -19 -40 -24 -15 -43 15 -12 14
-12 -10 -2 -29 13 -50 46 -22 35 10 -4 14 -1 11 6 -2 7 -12 13 -23 13 -25 0
-31 35 -8 52 22 16 48 17 38 1 -4 -6 -3 -8 4 -4 5 3 13 0 16 -6 3 -7 3 -2 0
11 -5 19 -3 23 10 18 9 -4 16 -2 16 3 0 6 11 10 25 10 14 0 25 -5 25 -11z
m-655 -21 c21 -62 23 -65 24 -35 2 52 21 27 21 -28 0 -56 -13 -72 -26 -32 l-8
22 -7 -25 c-5 -18 -7 -8 -8 33 -1 76 -25 74 -29 -2 -3 -43 -6 -52 -20 -49 -13
2 -18 16 -20 56 -2 30 1 52 7 52 5 0 12 -24 14 -52 l3 -53 2 61 c1 33 5 64 9
67 13 14 31 6 38 -15z m-1854 -10 l34 -12 -30 -7 c-16 -4 -56 -7 -87 -8 -56
-1 -58 0 -58 25 0 26 1 27 53 21 29 -4 69 -12 88 -19z m779 -69 c0 9 4 10 13
4 6 -5 17 -9 22 -8 47 5 90 47 60 59 -16 6 -21 26 -6 26 5 0 17 -7 25 -16 9
-8 16 -11 16 -6 0 25 165 -34 176 -63 9 -23 -14 -42 -58 -50 -27 -5 -38 -4
-38 5 0 7 -7 10 -16 6 -23 -9 -54 2 -54 20 0 8 -4 14 -10 14 -5 0 -10 -4 -10
-10 0 -5 -7 -10 -15 -10 -27 0 -65 -23 -65 -40 0 -25 19 -38 60 -42 19 -2 35
-7 35 -13 0 -12 -72 -7 -97 6 -25 14 -32 47 -14 74 15 22 14 24 -3 20 -18 -3
-69 43 -100 90 -7 11 7 -2 33 -30 25 -27 46 -44 46 -36z m60 65 c0 -2 -7 -4
-15 -4 -8 0 -15 4 -15 10 0 5 7 7 15 4 8 -4 15 -8 15 -10z m710 -31 c0 -13 -4
-23 -10 -23 -5 0 -10 17 -10 38 0 27 3 33 10 22 5 -8 10 -25 10 -37z m1253 15
c17 -23 18 -31 8 -57 -15 -35 -62 -56 -92 -40 -13 6 -19 6 -19 -1 0 -5 6 -10
14 -10 17 0 35 -22 40 -46 2 -11 6 -26 8 -34 4 -17 -63 -26 -119 -15 -30 5
-47 25 -22 25 6 0 23 9 37 21 l27 21 -27 -7 c-14 -4 -28 -2 -32 3 -3 5 2 9 12
9 38 0 40 2 32 39 -9 41 9 96 37 113 30 18 74 8 96 -21z m-1183 -35 c0 -36 -4
-53 -9 -44 -6 9 -11 10 -15 2 -11 -17 -25 -13 -21 7 2 9 7 34 10 55 4 23 11
37 20 37 12 0 15 -14 15 -57z m67 -1 c1 -30 -2 -50 -8 -47 -5 4 -10 16 -10 28
-1 17 -3 15 -9 -8 l-8 -30 -1 29 c0 16 6 34 16 41 9 7 13 17 8 25 -6 10 -9 9
-16 -1 -7 -11 -9 -10 -9 4 0 12 6 17 18 15 13 -3 17 -15 19 -56z m71 5 c2 -37
-1 -49 -13 -54 -10 -3 -20 -1 -24 5 -5 8 -6 82 -2 100 1 2 9 2 19 0 13 -2 18
-15 20 -51z m203 46 c0 -5 3 -19 5 -33 7 -40 -4 -70 -26 -70 -18 0 -20 7 -20
55 0 48 2 55 20 55 11 0 20 -3 21 -7z m-3353 -92 c3 -10 -3 -12 -27 -6 -25 5
-30 4 -25 -8 9 -25 -56 -34 -73 -11 -27 37 -17 45 54 42 45 -2 68 -7 71 -17z
m416 -33 c-3 -7 -21 -20 -40 -30 -33 -15 -35 -15 -32 0 3 13 35 31 75 41 1 1
0 -5 -3 -11z m146 -9 c0 -5 -10 -9 -22 -8 -13 0 -17 3 -10 6 6 2 10 9 7 14 -4
5 1 6 9 3 9 -3 16 -10 16 -15z m-990 2 c0 -5 -8 -11 -17 -14 -10 -2 -27 -8
-38 -12 -17 -6 -17 -4 4 14 24 22 51 28 51 12z m1670 -1 c0 -5 -9 -10 -19 -10
-11 0 -23 -4 -26 -10 -3 -5 -11 -10 -17 -10 -18 0 12 28 35 33 12 2 23 5 25 6
1 0 2 -3 2 -9z m840 1 c0 -5 -8 -11 -17 -14 -10 -2 -26 -8 -35 -12 -11 -4 -18
-3 -18 4 0 7 10 16 23 21 29 12 47 12 47 1z m830 1 c0 -4 -13 -13 -30 -19 -35
-13 -42 3 -7 17 28 11 37 12 37 2z m840 0 c0 -4 -16 -12 -35 -18 -39 -12 -47
-3 -12 14 26 13 47 15 47 4z m-3340 -32 c0 -6 -8 -13 -17 -17 -10 -3 -26 -13
-37 -22 -17 -15 -18 -15 -15 4 6 27 69 59 69 35z m31 -7 c1 -17 2 -17 6 0 8
31 23 18 23 -20 0 -28 -3 -34 -10 -23 -5 8 -10 10 -10 4 0 -6 -7 -11 -15 -11
-10 0 -15 11 -15 34 0 33 19 48 21 16z m447 -13 c0 -16 -4 -33 -10 -36 -7 -4
-8 -2 -4 5 4 6 2 18 -4 26 -6 8 -9 19 -5 25 12 19 22 10 23 -20z m-1323 10
c-3 -5 -12 -10 -19 -10 -8 0 -19 -7 -26 -15 -7 -9 -15 -13 -18 -10 -9 9 31 45
50 45 11 0 16 -4 13 -10z m1647 -10 c-41 -25 -54 -25 -23 0 13 11 31 20 40 20
9 0 3 -8 -17 -20z m863 10 c-3 -5 -11 -10 -17 -10 -6 0 -20 -7 -30 -17 -16
-15 -18 -15 -18 0 0 9 8 21 18 26 22 13 55 14 47 1z m810 -9 c-16 -10 -32 -16
-35 -14 -8 7 32 33 49 33 9 0 3 -8 -14 -19z m834 -4 c-19 -13 -36 -19 -38 -14
-5 14 28 37 52 37 16 0 13 -5 -14 -23z m-1369 3 c-18 -12 -30 -13 -30 -2 0 4
10 9 22 9 18 2 20 0 8 -7z m-2480 -20 c0 -5 -2 -10 -4 -10 -3 0 -8 5 -11 10
-3 6 -1 10 4 10 6 0 11 -4 11 -10z m4090 0 c0 -5 -7 -10 -16 -10 -8 0 -12 5
-9 10 3 6 10 10 16 10 5 0 9 -4 9 -10z m-3910 -65 l0 -35 -265 0 -265 0 0 29
c0 20 6 31 18 34 9 3 128 5 265 6 l247 1 0 -35z m830 -5 l0 -40 -253 0 c-262
0 -277 2 -277 42 0 33 31 37 283 38 l247 0 0 -40z m840 5 l0 -35 -265 0 -265
0 0 25 c0 13 8 29 18 34 10 6 115 11 265 11 l247 0 0 -35z m830 0 l0 -35 -262
2 -263 3 -3 23 c-2 16 3 25 20 31 13 6 132 10 266 10 l242 1 0 -35z m840 0 l0
-35 -265 0 -265 0 0 25 c0 13 8 29 18 34 10 6 115 11 265 11 l247 0 0 -35z
m834 13 c13 -50 22 -48 -258 -48 -167 0 -267 4 -271 10 -10 16 4 48 23 53 9 3
126 5 258 6 l242 1 6 -22z m-4678 -171 c3 -9 16 -12 34 -9 23 3 30 0 30 -12 0
-9 -4 -16 -10 -16 -5 0 -10 6 -10 13 0 9 -3 8 -9 -2 -5 -7 -14 -10 -20 -7 -6
4 -11 2 -11 -3 0 -17 -30 -13 -36 4 -8 19 2 45 16 45 6 0 13 -6 16 -13z m283
-9 c11 -28 6 -38 -20 -38 -13 0 -19 7 -19 23 0 42 25 51 39 15z m113 4 c7 -10
20 -22 28 -27 13 -8 13 -7 1 8 -12 15 -11 17 3 17 9 0 16 -8 16 -20 0 -22 -20
-26 -38 -8 -9 9 -12 9 -12 0 0 -7 -9 -12 -20 -12 -14 0 -20 7 -20 23 0 40 20
49 42 19z m430 -12 c-5 -36 -7 -35 -16 3 -4 19 -3 27 7 27 9 0 12 -9 9 -30z
m74 6 c14 4 24 2 24 -5 0 -6 -8 -11 -17 -12 -16 0 -15 -2 2 -10 16 -7 14 -8
-10 -3 -16 3 -33 10 -36 16 -4 7 -9 3 -12 -8 -3 -11 -5 -6 -6 14 -1 30 0 32
15 18 10 -10 24 -14 40 -10z m74 14 c-11 -7 -12 -12 -4 -17 9 -6 8 -12 -2 -21
-12 -11 -14 -8 -14 18 0 22 5 30 18 30 14 0 15 -2 2 -10z m239 -12 c10 -27 6
-38 -15 -38 -17 0 -28 24 -20 45 8 22 25 18 35 -7z m445 -5 c-9 -38 -11 -39
-16 -3 -3 21 0 30 9 30 10 0 11 -8 7 -27z m55 -20 c-1 -16 -2 -15 -7 2 l-5 20
-8 -20 c-6 -16 -8 -14 -8 13 -1 30 1 32 14 18 8 -8 14 -23 14 -33z m479 14 c3
-22 -1 -27 -17 -27 -15 0 -21 6 -21 23 0 46 33 49 38 4z m317 23 c3 -6 -1 -7
-9 -4 -11 4 -16 0 -16 -15 0 -12 5 -21 11 -21 5 0 7 5 4 10 -3 6 -1 10 4 10 6
0 11 -7 11 -15 0 -20 -36 -19 -44 1 -11 27 24 58 39 34z m142 -37 c-3 -10 -5
-2 -5 17 0 19 2 27 5 18 2 -10 2 -26 0 -35z m91 27 c13 0 13 -3 4 -12 -10 -10
-15 -10 -22 2 -5 8 -9 20 -9 25 0 6 3 4 6 -2 2 -7 12 -13 21 -13z m78 8 c4 -7
3 -8 -5 -4 -6 4 -14 0 -17 -9 -8 -20 4 -34 15 -16 7 11 13 11 32 0 22 -11 23
-11 10 4 -12 15 -11 17 3 17 9 0 16 -8 16 -19 0 -16 -7 -19 -42 -18 -33 2 -44
6 -46 21 -2 10 2 22 10 27 17 11 16 11 24 -3z m520 -3 c4 -10 14 -13 30 -9 18
5 24 2 24 -9 0 -22 -18 -31 -35 -17 -9 7 -15 8 -20 0 -12 -19 -35 -11 -35 13
0 37 25 52 36 22z m206 3 c-5 -7 -12 -22 -14 -33 -3 -14 -6 -11 -9 13 -5 27
-2 32 14 32 14 0 17 -3 9 -12z m626 3 c19 -11 11 -45 -11 -49 -13 -3 -17 3
-17 27 0 32 6 37 28 22z m204 -21 c-2 -16 -5 -30 -7 -30 -2 0 -5 14 -7 30 -3
19 0 30 7 30 7 0 10 -11 7 -30z m-4272 4 c0 -8 -4 -12 -10 -9 -5 3 -10 2 -10
-4 0 -5 6 -11 13 -14 9 -3 9 -7 0 -17 -6 -7 -16 -9 -21 -6 -12 7 -3 48 12 58
15 11 16 10 16 -8z m1730 -12 c0 -22 -1 -22 -17 -6 -16 15 -17 15 -24 -2 -6
-16 -8 -14 -8 7 -1 23 3 27 24 25 19 -1 25 -7 25 -24z m120 19 c0 -5 9 -7 20
-4 11 3 20 0 20 -6 0 -6 -6 -11 -12 -11 -10 0 -10 -2 0 -9 9 -5 -1 -8 -27 -8
-33 0 -41 3 -41 18 0 16 12 26 33 28 4 1 7 -3 7 -8z m748 -13 c-4 -29 -38 -38
-38 -10 0 19 11 29 33 31 5 1 7 -9 5 -21z m781 -5 c0 -25 -1 -25 -8 -8 -5 11
-7 23 -4 28 8 14 13 7 12 -20z m836 -3 c1 -10 -2 -17 -7 -14 -4 3 -8 15 -8 26
0 26 13 15 15 -12z m-4198 -12 c-3 -7 -5 -2 -5 12 0 14 2 19 5 13 2 -7 2 -19
0 -25z m48 21 c4 -6 4 -13 0 -17 -3 -3 -10 0 -15 7 -6 11 -9 10 -13 -5 -4 -16
-5 -16 -6 4 -1 23 22 31 34 11z m150 1 c11 9 12 7 8 -10 -6 -22 -23 -38 -23
-21 0 5 -2 15 -3 23 -2 7 -2 9 1 5 2 -4 10 -3 17 3z m164 -12 c-1 -21 -2 -21
-7 -3 l-5 20 -8 -20 c-7 -19 -8 -19 -8 3 -1 13 5 22 14 22 9 0 15 -9 14 -22z
m532 7 c7 19 8 19 8 -2 1 -14 -5 -23 -14 -23 -9 0 -15 9 -14 23 1 20 2 20 7 2
l5 -20 8 20z m69 0 c10 -12 10 -19 2 -27 -9 -9 -12 -7 -12 10 0 12 -4 22 -10
22 -5 0 -10 -4 -10 -10 0 -5 -4 -10 -10 -10 -5 0 -10 7 -10 15 0 20 34 19 50
0z m172 -7 c-7 -28 -19 -30 -24 -5 -3 16 0 23 12 23 11 0 15 -6 12 -18z m503
12 c3 -5 -2 -10 -12 -10 -15 0 -16 -2 -3 -10 13 -8 12 -10 -2 -10 -11 0 -18 8
-18 20 0 21 24 28 35 10z m125 -10 c0 -22 -24 -27 -36 -8 -5 8 -2 9 11 4 15
-5 16 -4 5 9 -10 12 -10 15 4 15 9 0 16 -8 16 -20z m17 -12 c-3 -7 -5 -2 -5
12 0 14 2 19 5 13 2 -7 2 -19 0 -25z m158 16 c-23 -17 -35 -18 -36 -1 0 6 -4
3 -9 -8 -8 -19 -9 -19 -9 2 -1 18 5 21 36 21 35 0 36 -1 18 -14z m166 7 c7 12
9 11 9 -1 0 -8 -5 -22 -10 -30 -6 -9 -10 -10 -10 -3 0 6 -2 17 -3 25 -2 7 -2
9 1 4 2 -4 8 -2 13 5z m362 -7 c-3 -9 -14 -12 -32 -8 -20 4 -23 3 -11 -5 13
-9 13 -11 -2 -11 -11 0 -18 8 -18 19 0 15 7 19 34 19 26 0 33 -4 29 -14z m45
-7 c2 -12 -3 -17 -17 -17 -12 0 -21 5 -21 11 0 5 5 7 12 3 8 -5 9 -2 5 10 -5
12 -3 16 5 14 7 -3 14 -12 16 -21z m311 1 c-1 -17 -2 -19 -6 -5 -2 9 -9 17
-14 17 -5 0 -10 -8 -10 -17 -1 -15 -2 -14 -7 2 l-5 20 -8 -20 c-7 -19 -8 -19
-8 3 -1 18 4 22 29 22 25 0 30 -4 29 -22z m41 12 c0 -5 -6 -10 -12 -10 -9 0
-8 -4 2 -10 13 -8 12 -10 -2 -10 -11 0 -18 8 -18 20 0 11 7 20 15 20 8 0 15
-4 15 -10z m449 -12 c-1 -21 -2 -21 -7 -3 l-5 20 -8 -20 c-7 -19 -8 -19 -8 3
-1 13 5 22 14 22 9 0 15 -9 14 -22z m141 -8 c5 0 11 8 13 18 3 12 5 11 6 -6 1
-17 -4 -23 -16 -20 -10 2 -18 10 -19 18 0 9 1 10 3 3 3 -7 8 -13 13 -13z m43
10 c-3 -11 -7 -20 -9 -20 -2 0 -4 9 -4 20 0 11 4 20 9 20 5 0 7 -9 4 -20z m46
-2 c-1 -21 -2 -21 -7 -3 l-5 20 -8 -20 c-7 -19 -8 -19 -8 3 -1 13 5 22 14 22
9 0 15 -9 14 -22z m610 -1 c-1 -17 -2 -18 -6 -4 -2 9 -9 17 -14 17 -5 0 -9 -8
-9 -17 0 -15 -2 -16 -10 -3 -6 10 -10 11 -10 3 0 -7 -7 -13 -15 -13 -8 0 -15
8 -15 19 0 15 8 19 40 19 35 1 40 -2 39 -21z m142 8 c7 19 8 19 8 -2 1 -14 -5
-23 -14 -23 -9 0 -15 9 -14 23 1 20 2 20 7 2 l5 -20 8 20z m88 -7 c-1 -20 -2
-20 -6 -4 -4 15 -7 16 -14 5 -8 -12 -11 -12 -19 1 -6 10 -10 11 -10 3 0 -7 -4
-13 -10 -13 -5 0 -10 7 -10 15 0 10 11 15 35 15 30 0 35 -3 34 -22z m-4282 6
c-3 -3 -12 -4 -19 -1 -8 3 -5 6 6 6 11 1 17 -2 13 -5z m930 0 c-3 -3 -12 -4
-19 -1 -8 3 -5 6 6 6 11 1 17 -2 13 -5z m928 -14 c-3 -5 -11 -10 -16 -10 -6 0
-7 5 -4 10 3 6 11 10 16 10 6 0 7 -4 4 -10z m675 0 c0 -5 -8 -10 -17 -10 -15
0 -16 2 -3 10 19 12 20 12 20 0z m-2750 -75 c0 -18 -5 -25 -20 -25 -15 0 -20
7 -20 25 0 18 5 25 20 25 15 0 20 -7 20 -25z m830 16 c0 -5 2 -15 5 -23 3 -9
-3 -13 -19 -13 -13 0 -23 2 -22 5 2 3 6 13 9 23 7 18 27 24 27 8z m27 -28 c-3
-10 -5 -4 -5 12 0 17 2 24 5 18 2 -7 2 -21 0 -30z m132 30 c0 -5 -4 -17 -9
-28 -8 -18 -9 -17 -9 8 -1 15 4 27 9 27 6 0 10 -3 9 -7z m30 -20 c0 -16 -3
-22 -6 -15 -2 6 -9 10 -14 6 -13 -8 -11 10 3 24 17 17 18 16 17 -15z m110 -7
c-1 -20 -2 -20 -7 -1 l-5 20 -8 -20 c-7 -17 -8 -17 -8 7 -1 20 3 26 14 22 8
-4 14 -16 14 -28z m108 -3 c-3 -10 -5 -4 -5 12 0 17 2 24 5 18 2 -7 2 -21 0
-30z m73 12 c0 -18 -5 -25 -20 -25 -25 0 -27 37 -2 43 9 3 18 5 20 6 1 0 2
-10 2 -24z m346 9 c-3 -8 -2 -12 4 -9 6 3 10 0 10 -7 0 -8 -9 -14 -20 -14 -13
0 -19 5 -15 14 3 7 5 18 5 23 0 5 5 9 11 9 6 0 8 -7 5 -16z m36 -9 c3 -14 1
-25 -3 -25 -5 0 -9 11 -9 25 0 14 2 25 4 25 2 0 6 -11 8 -25z m148 -7 c0 -5
-4 -7 -9 -4 -5 4 -12 0 -14 -6 -3 -7 -6 0 -6 16 -1 24 1 27 14 16 8 -7 15 -17
15 -22z m19 5 c0 -25 -1 -26 -9 -8 -12 27 -12 35 0 35 6 0 10 -12 9 -27z m110
-11 c-1 -16 -2 -16 -6 1 -2 9 -8 17 -13 17 -5 0 -11 -8 -13 -17 -3 -11 -5 -7
-6 10 -1 25 1 27 19 17 11 -6 19 -18 19 -28z m103 13 c3 -14 1 -25 -3 -25 -5
0 -9 11 -9 25 0 14 2 25 4 25 2 0 6 -11 8 -25z m68 0 c0 -16 -6 -25 -15 -25
-28 0 -18 40 13 49 1 1 2 -10 2 -24z m377 10 c17 -12 23 -12 27 -2 3 6 3 1 0
-13 -9 -38 -24 -48 -24 -17 0 29 -7 33 -30 16 -13 -9 -12 -10 3 -5 9 3 17 1
17 -4 0 -6 -9 -10 -20 -10 -15 0 -20 7 -20 25 0 28 16 32 47 10z m83 5 c-10
-6 -11 -10 -2 -10 6 0 12 -7 12 -15 0 -8 -8 -15 -17 -15 -15 0 -16 2 -3 10 10
6 11 10 3 10 -7 0 -13 7 -13 15 0 8 8 15 18 15 14 0 15 -2 2 -10z m40 -17 c0
-20 -3 -24 -11 -16 -7 7 -9 19 -6 27 10 24 17 19 17 -11z m158 14 c13 3 22 1
22 -6 0 -7 -4 -9 -10 -6 -5 3 -10 2 -10 -4 0 -5 6 -12 13 -14 6 -3 0 -5 -15
-4 -16 1 -28 7 -28 14 0 19 -18 16 -23 -4 -3 -11 -5 -7 -6 10 -1 24 1 26 17
18 10 -6 28 -7 40 -4z m115 2 c9 7 12 2 13 -17 1 -15 -1 -21 -3 -14 -4 10 -8
10 -19 1 -11 -9 -14 -6 -13 17 0 16 3 23 6 16 3 -8 9 -10 16 -3z m413 -5 c-3
-8 -2 -12 4 -9 6 3 10 0 10 -7 0 -8 -9 -14 -20 -14 -13 0 -19 5 -15 14 3 7 5
18 5 23 0 5 5 9 11 9 6 0 8 -7 5 -16z m224 -9 c0 -16 -6 -25 -15 -25 -28 0
-18 40 13 49 1 1 2 -10 2 -24z m120 0 c0 -18 -5 -25 -20 -25 -15 0 -20 7 -20
25 0 18 5 25 20 25 15 0 20 -7 20 -25z m100 0 c0 -17 -5 -25 -17 -25 -15 0
-15 2 -4 9 8 5 11 16 8 25 -4 9 -2 16 3 16 6 0 10 -11 10 -25z m400 16 c0 -5
2 -16 5 -23 4 -9 -2 -14 -15 -14 -11 0 -20 6 -20 14 0 7 4 10 10 7 6 -3 7 1 4
9 -3 9 -1 16 5 16 6 0 11 -4 11 -9z m220 -16 c0 -18 -5 -25 -20 -25 -25 0 -26
25 -2 39 23 14 22 14 22 -14z m118 0 c0 -18 -6 -25 -19 -25 -14 0 -19 7 -19
25 0 18 5 25 19 25 13 0 19 -7 19 -25z m102 0 c0 -17 -5 -25 -17 -24 -11 0
-13 3 -5 6 6 2 12 11 12 18 0 7 -6 16 -12 18 -8 3 -6 6 5 6 12 1 17 -7 17 -24z
m-4587 -5 c-3 -11 -7 -20 -9 -20 -2 0 -4 9 -4 20 0 11 4 20 9 20 5 0 7 -9 4
-20z m64 6 c-5 -14 -35 -31 -43 -24 -12 13 5 37 26 35 11 -1 19 -6 17 -11z
m33 2 c0 -9 4 -8 10 2 5 8 10 11 10 5 0 -17 -14 -30 -32 -31 -20 -2 -20 -2
-12 20 7 19 24 21 24 4z m59 -10 c-1 -21 -2 -21 -7 -3 l-5 20 -8 -20 c-7 -19
-8 -19 -8 3 -1 13 5 22 14 22 9 0 15 -9 14 -22z m721 11 c0 -5 -4 -7 -10 -4
-5 3 -10 2 -10 -4 0 -5 6 -12 13 -14 7 -3 5 -6 -5 -6 -12 -1 -18 6 -18 19 0
11 7 20 15 20 8 0 15 -5 15 -11z m40 -9 c0 -9 -6 -17 -13 -17 -7 0 -13 8 -13
17 0 9 6 17 13 17 7 0 13 -8 13 -17z m140 10 c-13 -9 -13 -11 0 -20 12 -8 9
-9 -12 -8 -44 4 -33 35 12 37 13 1 13 0 0 -9z m93 -10 c4 -15 0 -20 -14 -20
-10 0 -19 5 -19 11 0 5 5 7 10 4 6 -3 10 -2 10 4 0 5 -6 12 -12 14 -8 4 -7 6
3 6 9 1 19 -8 22 -19z m43 8 c4 -7 3 -8 -4 -4 -7 4 -12 3 -12 -3 0 -5 6 -12
13 -14 7 -3 6 -6 -5 -6 -20 -1 -32 15 -23 29 8 13 22 13 31 -2z m41 -20 c-3
-7 -5 -2 -5 12 0 14 2 19 5 13 2 -7 2 -19 0 -25z m93 21 c0 -5 -4 -7 -10 -4
-5 3 -10 2 -10 -4 0 -5 6 -12 13 -14 7 -3 5 -6 -5 -6 -12 -1 -18 6 -18 19 0
11 7 20 15 20 8 0 15 -5 15 -11z m40 7 c0 -2 -7 -6 -15 -10 -8 -3 -15 -1 -15
4 0 6 7 10 15 10 8 0 15 -2 15 -4z m346 -8 c4 -7 3 -8 -4 -4 -7 4 -12 3 -12
-3 0 -5 6 -12 13 -14 7 -3 6 -6 -5 -6 -20 -1 -32 15 -23 29 8 13 22 13 31 -2z
m40 -8 c0 -9 -6 -17 -13 -17 -7 0 -13 8 -13 17 0 9 6 17 13 17 7 0 13 -8 13
-17z m101 -12 c-3 -7 -5 -2 -5 12 0 14 2 19 5 13 2 -7 2 -19 0 -25z m33 22
c-13 -9 -13 -11 0 -20 13 -8 12 -10 -2 -10 -10 0 -18 6 -18 13 0 17 10 27 24
27 6 0 4 -5 -4 -10z m98 -13 c2 -10 -3 -17 -12 -17 -9 0 -16 5 -16 11 0 5 5 7
10 4 6 -3 10 -2 10 4 0 5 -5 12 -10 14 -6 3 -5 4 2 3 7 -1 14 -10 16 -19z m42
12 c0 -5 -4 -7 -10 -4 -5 3 -10 2 -10 -4 0 -5 6 -12 13 -14 7 -3 5 -6 -5 -6
-12 -1 -18 6 -18 19 0 11 7 20 15 20 8 0 15 -5 15 -11z m47 -21 c-3 -7 -5 -2
-5 12 0 14 2 19 5 13 2 -7 2 -19 0 -25z m88 22 c4 -6 -1 -7 -12 -4 -16 5 -16
4 1 -10 17 -14 17 -16 4 -16 -20 0 -32 16 -23 30 8 13 22 13 30 0z m30 0 c-3
-5 -1 -10 4 -10 6 0 11 -4 11 -10 0 -19 -26 -10 -27 10 -1 11 3 20 8 20 6 0 7
-4 4 -10z m515 -11 c0 -10 -2 -19 -4 -19 -2 0 -11 -3 -20 -6 -10 -4 -16 -1
-16 9 0 8 -7 17 -15 21 -8 3 -15 1 -15 -3 0 -5 6 -12 13 -14 7 -3 5 -6 -5 -6
-10 -1 -18 5 -18 12 0 20 6 23 45 24 28 1 35 -3 35 -18z m129 -1 c-1 -21 -2
-21 -7 -3 l-5 20 -8 -20 c-7 -19 -8 -19 -8 3 -1 13 5 22 14 22 9 0 15 -9 14
-22z m98 -10 c-3 -7 -5 -2 -5 12 0 14 2 19 5 13 2 -7 2 -19 0 -25z m42 10 c-1
-21 -2 -21 -7 -3 l-5 20 -8 -20 c-7 -19 -8 -19 -8 3 -1 13 5 22 14 22 9 0 15
-9 14 -22z m45 -8 c0 -16 -6 -26 -17 -28 -13 -3 -17 4 -17 28 0 24 4 31 17 28
11 -2 17 -12 17 -28z m374 7 c4 -22 -26 -23 -35 -1 -6 15 -8 15 -20 -2 -12
-17 -13 -17 -13 4 0 18 5 21 32 19 22 -2 34 -8 36 -20z m33 8 c7 19 8 19 8 -2
1 -14 -5 -23 -14 -23 -9 0 -15 9 -14 23 1 20 2 20 7 2 l5 -20 8 20z m56 -10
c1 -16 1 -16 -3 -2 -3 9 -9 17 -14 17 -5 0 -11 -8 -13 -17 -3 -13 -5 -12 -6 5
-1 30 33 27 36 -3z m199 16 c12 9 12 6 3 -20 -14 -40 -24 -39 -25 2 -1 17 1
26 3 19 4 -10 8 -10 19 -1z m110 -3 c5 -8 2 -9 -9 -5 -10 3 -17 2 -17 -2 0 -5
6 -12 13 -14 9 -4 9 -6 0 -6 -15 -1 -26 16 -18 29 8 13 22 13 31 -2z m387 -8
c-3 -11 -7 -20 -9 -20 -2 0 -4 9 -4 20 0 11 4 20 9 20 5 0 7 -9 4 -20z m47 0
c0 -11 -7 -20 -15 -20 -8 0 -15 9 -15 20 0 11 7 20 15 20 8 0 15 -9 15 -20z
m30 -10 c5 0 11 8 13 18 4 13 5 11 6 -5 1 -17 -5 -23 -19 -23 -14 0 -20 6 -19
23 1 16 2 18 6 5 2 -10 8 -18 13 -18z m59 8 c-1 -21 -2 -21 -7 -3 l-5 20 -8
-20 c-7 -19 -8 -19 -8 3 -1 13 5 22 14 22 9 0 15 -9 14 -22z m311 11 c0 -5 -4
-7 -10 -4 -5 3 -10 2 -10 -4 0 -5 6 -12 13 -14 7 -3 5 -6 -5 -6 -12 -1 -18 6
-18 19 0 11 7 20 15 20 8 0 15 -5 15 -11z m-117 -40 c-5 -5 -9 3 -11 19 -1 24
0 25 9 9 7 -11 7 -23 2 -28z m-3143 21 c0 -5 -7 -10 -16 -10 -8 0 -12 5 -9 10
3 6 10 10 16 10 5 0 9 -4 9 -10z m-46 -475 c-4 -410 -2 -386 -24 -392 -11 -3
-20 -13 -20 -23 0 -10 -10 -20 -24 -24 -18 -4 -23 -11 -19 -26 7 -28 -15 -54
-33 -39 -8 6 -14 19 -15 28 -1 9 -4 5 -9 -9 -8 -24 -8 -23 -9 8 -1 17 -5 32
-11 32 -5 0 -14 -15 -19 -32 -9 -32 -9 -32 -10 -5 -1 16 -7 27 -15 27 -17 0
-18 -41 -1 -52 6 -5 3 -8 -7 -8 -12 0 -18 8 -18 24 0 14 -5 28 -11 32 -8 4 -9
-3 -4 -25 4 -20 3 -31 -4 -31 -6 0 -11 8 -11 17 0 15 -1 15 -13 -1 -13 -17
-14 -17 -30 -1 -13 12 -17 13 -17 3 0 -19 -49 -21 -57 -3 -5 13 -7 13 -19 -2
-12 -16 -13 -14 -14 20 0 20 5 37 10 37 6 0 10 -5 10 -11 0 -8 4 -8 13 -1 6 5
21 12 32 15 17 4 16 5 -5 6 l-25 2 22 12 c17 9 20 16 12 27 -8 12 -12 12 -16
2 -4 -10 -8 -10 -19 -1 -8 6 -34 12 -59 13 l-45 1 0 151 0 152 30 4 c28 4 29
3 22 -21 -12 -43 -6 -135 11 -168 33 -63 105 -103 187 -103 19 0 30 -4 24 -8
-17 -11 -13 -43 5 -40 11 2 15 12 13 29 -2 19 2 28 16 31 11 3 19 0 19 -7 0
-7 -7 -11 -16 -8 -9 2 -4 -3 12 -12 24 -14 29 -14 42 -1 17 17 20 46 5 46 -5
0 -10 -5 -10 -11 0 -5 -5 -7 -11 -3 -7 4 4 22 29 48 59 61 75 99 69 163 -11
102 -71 166 -171 179 -49 7 -124 -14 -146 -41 -7 -8 -22 -13 -34 -11 -11 2
-15 1 -8 -1 6 -3 12 -8 12 -13 0 -14 -30 -32 -45 -26 -8 3 -15 2 -15 -2 0 -4
-9 -8 -20 -9 -18 -2 -20 4 -20 57 0 52 -2 59 -17 53 -10 -3 -26 -13 -35 -21
-16 -13 -17 -11 -15 24 2 34 6 39 35 48 24 7 32 14 32 33 l0 23 243 -2 242 -3
-1 -150z m-984 119 c0 -2 -16 -4 -35 -4 -19 0 -35 4 -35 8 0 4 16 6 35 4 19
-2 35 -6 35 -8z m-122 -1 c-10 -2 -26 -2 -35 0 -10 3 -2 5 17 5 19 0 27 -2 18
-5z m165 0 c-7 -2 -19 -2 -25 0 -7 3 -2 5 12 5 14 0 19 -2 13 -5z m60 0 c-7
-2 -21 -2 -30 0 -10 3 -4 5 12 5 17 0 24 -2 18 -5z m-443 -22 c0 -5 -8 -11
-17 -14 -10 -2 -27 -8 -37 -13 -14 -5 -17 -4 -12 5 13 21 66 39 66 22z m1670
0 c0 -5 -8 -11 -17 -14 -10 -2 -27 -8 -38 -13 -18 -7 -18 -6 -7 9 8 8 23 18
35 20 12 2 23 5 25 6 1 0 2 -3 2 -8z m840 0 c0 -5 -8 -11 -17 -14 -10 -2 -26
-8 -35 -12 -11 -4 -18 -3 -18 4 0 7 10 16 23 21 29 12 47 12 47 1z m830 1 c0
-4 -14 -13 -31 -19 -23 -9 -29 -9 -26 0 2 6 14 14 28 18 13 4 25 7 27 8 1 1 2
-3 2 -7z m825 -10 c-11 -2 -24 -8 -29 -13 -13 -12 -26 -12 -26 0 0 12 52 30
65 22 6 -3 1 -7 -10 -9z m-3980 -37 c0 -23 -5 -31 -22 -33 -20 -3 -23 1 -23
33 0 32 3 36 23 33 17 -2 22 -10 22 -33z m80 -5 c5 -22 3 -25 -20 -25 -28 0
-29 3 -15 41 12 30 25 24 35 -16z m59 24 c8 -22 8 -26 -3 -19 -5 3 -12 -5 -14
-17 -3 -15 -5 -9 -6 15 -1 38 12 50 23 21z m26 -21 c0 -23 -4 -33 -9 -27 -9 8
-4 64 5 64 2 0 4 -17 4 -37z m-355 7 c-3 -5 -12 -10 -19 -10 -8 0 -19 -7 -26
-15 -7 -9 -15 -13 -18 -10 -9 9 31 45 50 45 11 0 16 -4 13 -10z m1647 -10
c-41 -25 -54 -25 -23 0 13 11 31 20 40 20 9 0 3 -8 -17 -20z m331 -2 c32 -12
68 -75 62 -107 -4 -22 9 -29 20 -11 3 6 1 10 -5 10 -6 0 -8 5 -5 10 5 8 11 7
21 -1 7 -6 21 -8 30 -5 24 9 35 -3 21 -24 -10 -17 -19 -19 -58 -14 -46 6 -46
6 -52 -26 -4 -18 -4 -37 -1 -42 4 -6 1 -14 -7 -18 -17 -11 4 -85 26 -94 22 -8
18 -25 -7 -35 -43 -17 -66 33 -43 92 5 13 2 17 -13 17 -27 0 -52 10 -52 21 0
5 8 9 18 9 14 0 15 2 2 10 -9 6 -11 10 -3 10 7 0 10 7 7 15 -4 8 -1 15 6 15
10 0 10 3 0 15 -16 19 -121 21 -151 3 -18 -11 -23 -10 -40 11 -14 17 -25 22
-44 17 -24 -6 -25 -5 -25 49 0 57 3 61 48 49 13 -4 22 -14 22 -25 0 -11 8 -20
18 -20 9 -1 33 -3 52 -5 37 -3 64 12 53 28 -12 20 -8 53 7 60 17 8 51 3 93
-14z m532 12 c-3 -5 -11 -10 -17 -10 -6 0 -20 -7 -30 -17 -16 -15 -18 -15 -18
0 0 9 8 21 18 26 22 13 55 14 47 1z m835 6 c0 -3 -13 -11 -30 -20 -32 -15 -42
-4 -12 13 17 11 42 14 42 7z m809 -19 c-19 -13 -36 -19 -38 -15 -4 13 30 37
53 38 14 0 10 -6 -15 -23z m-655 -26 c7 -49 0 -71 -25 -71 -15 0 -19 7 -19 39
0 77 33 101 44 32z m66 -16 c0 -48 -2 -55 -20 -55 -20 0 -22 5 -22 35 0 65 3
75 22 75 18 0 20 -7 20 -55z m48 33 l11 -23 1 25 c1 23 2 23 10 5 15 -35 12
-95 -5 -95 -8 0 -16 8 -16 18 -1 16 -2 16 -6 0 -10 -38 -23 -15 -22 37 2 59
10 68 27 33z m59 -10 c-3 -7 -5 -2 -5 12 0 14 2 19 5 13 2 -7 2 -19 0 -25z
m66 20 c-7 -13 -8 -18 -11 -71 -1 -16 -6 -25 -12 -22 -6 3 -8 16 -4 29 3 12 0
34 -5 49 -10 25 -9 27 15 27 18 0 23 -4 17 -12z m524 -20 c-3 -8 -6 -5 -6 6
-1 11 2 17 5 13 3 -3 4 -12 1 -19z m33 7 c0 -8 -4 -15 -10 -15 -5 0 -10 7 -10
15 0 8 5 15 10 15 6 0 10 -7 10 -15z m55 6 c3 -5 1 -12 -5 -16 -5 -3 -10 1
-10 9 0 18 6 21 15 7z m35 -6 c0 -8 -4 -15 -10 -15 -5 0 -7 7 -4 15 4 8 8 15
10 15 2 0 4 -7 4 -15z m100 6 c0 -12 -20 -25 -27 -18 -7 7 6 27 18 27 5 0 9
-4 9 -9z m37 -6 c0 -8 -4 -15 -9 -15 -4 0 -8 7 -8 15 0 8 4 15 8 15 5 0 9 -7
9 -15z m27 0 c3 -8 1 -15 -4 -15 -6 0 -10 7 -10 15 0 8 2 15 4 15 2 0 6 -7 10
-15z m46 0 c0 -8 -4 -15 -8 -15 -5 0 -9 7 -9 15 0 8 4 15 9 15 4 0 8 -7 8 -15z
m-4482 -87 c2 -46 1 -48 -24 -48 -26 0 -26 -1 -10 -25 19 -28 16 -30 -31 -13
-38 14 -42 24 -13 33 16 5 20 15 20 56 0 49 1 50 28 47 25 -3 27 -7 30 -50z
m76 36 c4 -9 1 -22 -5 -30 -7 -9 -7 -18 1 -33 6 -13 7 -21 1 -21 -5 0 -13 9
-16 20 -3 11 -11 20 -16 20 -5 0 -9 -9 -9 -20 0 -11 -4 -20 -10 -20 -5 0 -10
23 -10 50 0 48 1 50 29 50 17 0 31 -6 35 -16z m71 -34 c0 -41 -2 -45 -25 -45
-21 0 -26 5 -28 33 -5 47 4 64 30 60 20 -3 23 -9 23 -48z m36 12 c1 -26 1 -26
11 6 6 17 14 32 18 32 4 0 11 -15 15 -32 8 -31 8 -32 12 -8 3 14 9 30 15 35
12 12 2 -60 -12 -85 -7 -12 -11 -9 -21 15 -10 26 -13 27 -17 10 -8 -38 -20
-37 -31 1 -14 49 -14 67 -1 59 6 -3 10 -18 11 -33z m121 11 l17 -28 1 28 c0
15 5 27 10 27 6 0 10 -22 10 -50 0 -57 -8 -62 -32 -22 l-17 27 -1 -27 c0 -16
-4 -28 -10 -28 -5 0 -10 23 -10 50 0 57 8 62 32 23z m729 -33 c18 -14 20 -19
8 -20 -9 0 -19 3 -23 8 -4 4 -22 12 -39 19 l-32 11 31 1 c18 1 42 -8 55 -19z
m2397 -27 c2 -16 4 -47 5 -70 2 -58 15 -55 20 5 4 44 4 43 3 -8 -1 -48 -4 -55
-21 -55 -18 0 -20 6 -18 50 2 40 0 45 -7 27 -6 -13 -12 -35 -14 -49 -10 -51
-23 -45 -28 12 -2 22 -7 46 -11 52 -4 6 3 13 18 17 13 3 29 15 35 26 14 26 14
25 18 -7z m-2508 -8 c0 -3 -7 -16 -15 -29 -16 -24 -12 -70 6 -82 5 -3 4 7 -1
21 -6 15 -7 32 -4 38 19 33 50 57 75 57 37 0 72 -44 64 -80 -5 -22 -4 -23 6
-6 8 13 9 28 1 52 -8 27 -7 34 4 34 31 0 45 -75 22 -125 -21 -47 -92 -68 -152
-45 -72 27 -91 170 -24 170 10 0 18 -2 18 -5z m1010 -20 c0 -8 -4 -15 -8 -15
-5 0 -9 7 -9 15 0 8 4 15 9 15 4 0 8 -7 8 -15z m1657 3 c10 14 12 7 13 -45 0
-36 -4 -63 -10 -63 -5 0 -11 8 -11 18 -1 16 -2 16 -6 0 -10 -40 -23 -14 -22
45 0 49 2 59 12 45 10 -15 12 -15 24 0z m-1055 -15 c-24 -9 -44 -35 -34 -45
12 -12 35 -1 27 12 -3 4 2 11 11 14 12 5 15 2 10 -10 -3 -8 -6 -19 -6 -23 0
-15 -51 -10 -57 6 -7 17 44 70 56 57 3 -4 0 -9 -7 -11z m238 2 c0 6 5 2 11 -8
8 -14 8 -22 -1 -30 -8 -9 -10 -8 -5 6 9 21 -8 23 -25 2 -18 -21 -40 -19 -40 5
0 13 7 20 20 20 11 0 20 6 20 13 0 8 4 7 10 -3 5 -8 10 -10 10 -5z m756 -43
c1 -53 -15 -75 -17 -24 l-2 27 -4 -27 c-2 -16 -8 -28 -13 -28 -4 0 -7 8 -5 18
2 9 4 34 4 55 1 31 4 38 19 35 13 -3 17 -14 18 -56z m-891 29 c3 -5 1 -12 -5
-16 -5 -3 -10 -1 -10 6 0 7 -3 9 -7 6 -3 -4 2 -17 13 -28 19 -22 19 -22 -3
-10 -16 8 -23 8 -23 1 0 -6 -4 -9 -8 -6 -13 8 -63 -44 -56 -56 4 -7 2 -8 -5
-4 -11 7 -8 18 13 45 6 7 11 19 12 25 0 6 2 17 2 25 1 8 10 11 22 8 11 -3 23
-1 26 4 7 12 21 12 29 0z m36 -5 c5 3 9 -1 9 -10 0 -8 6 -17 13 -19 6 -3 3 -6
-8 -6 -31 -1 -47 13 -39 34 5 11 9 14 12 7 2 -7 8 -10 13 -6z m-2736 -18 c20
-13 33 -29 30 -36 -9 -25 27 -84 61 -98 18 -8 34 -21 36 -30 2 -10 13 -18 25
-19 12 -1 19 3 16 8 -4 7 1 7 13 3 10 -5 27 -11 37 -13 9 -3 17 -12 17 -19 0
-17 -37 -19 -43 -1 -3 6 -6 3 -7 -8 -1 -20 -1 -20 -9 0 -7 16 -9 13 -15 -19
-6 -33 -10 -38 -31 -33 -14 2 -22 0 -19 -4 3 -5 0 -9 -5 -9 -6 0 -11 5 -11 10
0 6 -17 10 -37 10 -48 0 -71 13 -56 32 6 7 14 23 17 35 6 20 5 21 -23 13 -25
-7 -30 -5 -35 13 -7 27 -8 187 -1 187 3 0 21 -10 40 -22z m134 -22 c-3 -3 -11
5 -18 17 -13 21 -12 21 5 5 10 -10 16 -20 13 -22z m34 27 c-17 -6 -17 -23 0
-23 7 0 13 -10 14 -22 2 -22 1 -22 -9 -3 -11 19 -11 19 -19 0 -6 -15 -8 -11
-8 18 -1 29 3 37 17 36 10 0 12 -3 5 -6z m91 -1 c2 -4 -4 -8 -14 -8 -10 0 -16
4 -14 8 3 4 9 8 14 8 5 0 11 -4 14 -8z m82 -49 c-3 -3 -9 3 -13 13 -6 17 -8
17 -14 -6 -6 -21 -7 -19 -8 14 l-1 39 21 -27 c12 -15 19 -30 15 -33z m-260 10
c-3 -7 -2 -13 3 -13 12 0 22 -43 13 -52 -15 -15 -52 22 -52 50 0 21 5 28 20
28 13 0 19 -5 16 -13z m184 3 c0 -21 -20 -30 -33 -17 -9 9 -7 10 7 5 16 -6 18
-4 13 9 -3 9 -2 17 3 17 6 0 10 -6 10 -14z m3060 -21 c0 -8 -4 -17 -10 -20 -6
-4 -10 5 -10 20 0 15 4 24 10 20 6 -3 10 -12 10 -20z m902 -7 c-6 -6 -16 -7
-23 -3 -9 6 -7 12 7 22 21 15 34 -1 16 -19z m331 12 c-5 -19 -17 -25 -38 -20
-5 2 -21 2 -35 2 -24 -1 -24 -1 -7 13 11 7 25 11 32 8 8 -2 22 0 32 6 10 6 19
11 20 11 0 0 -1 -9 -4 -20z m-1863 -12 c6 -17 9 -18 9 -6 1 22 41 20 41 -2 0
-11 -8 -15 -27 -14 -16 1 -28 3 -28 4 0 2 -10 4 -22 5 -15 1 -23 -3 -24 -14 0
-12 -2 -11 -8 4 -9 22 9 41 21 22 5 -8 9 -6 14 6 8 23 13 22 24 -5z m83 15
c-18 -7 -16 -21 5 -26 13 -4 11 -5 -5 -6 -17 -1 -23 5 -23 19 0 13 6 20 18 19
10 0 12 -3 5 -6z m1537 -14 c0 -5 -3 -8 -7 -8 -5 1 -19 0 -33 -1 -18 -2 -20
-4 -7 -7 9 -2 17 -9 17 -14 0 -5 10 -9 21 -9 17 0 20 -4 15 -22 -3 -13 -6 -29
-6 -36 0 -7 -5 -10 -11 -6 -8 4 -9 -1 -4 -16 4 -12 3 -20 -1 -17 -5 3 -9 -9
-10 -26 -1 -32 -1 -32 10 -7 6 14 16 29 24 33 7 5 10 17 7 28 -9 28 12 50 47
47 20 -2 27 -6 23 -17 -4 -11 -3 -12 10 -1 8 7 15 10 15 6 0 -3 0 -9 0 -13 0
-5 -4 -9 -10 -9 -5 -1 -14 -2 -20 -3 -5 0 -10 -10 -10 -21 0 -11 -4 -20 -10
-20 -5 0 -7 6 -4 14 3 7 -1 16 -9 19 -10 4 -14 -3 -14 -25 0 -18 -7 -34 -16
-39 -9 -5 -19 -25 -23 -44 -6 -36 -24 -39 -24 -4 0 16 -2 18 -14 7 -8 -7 -13
-15 -11 -18 2 -3 -3 -18 -9 -35 l-13 -30 3 42 c1 23 5 47 8 52 3 5 8 26 12 47
3 21 15 49 25 63 11 13 17 27 14 30 -4 3 -10 -1 -15 -9 -9 -14 -14 -7 -11 13
2 11 -4 9 -29 -13 -15 -13 -18 -20 -9 -20 10 -1 8 -5 -5 -15 -10 -8 -23 -12
-27 -9 -5 3 -9 -1 -9 -8 -1 -7 -7 -2 -14 11 -9 16 -16 20 -20 12 -4 -6 -12 -9
-17 -6 -16 10 -10 44 10 55 26 13 44 13 35 -2 -4 -6 -3 -8 4 -4 5 3 13 0 16
-6 3 -7 3 -2 0 11 -5 19 -3 23 10 18 11 -4 18 1 22 18 4 16 14 25 32 27 31 4
42 1 42 -13z m90 0 c0 -5 -9 -9 -20 -9 -11 0 -20 5 -20 11 0 5 5 7 10 4 6 -3
10 -1 10 5 0 6 5 8 10 5 6 -3 10 -10 10 -16z m54 6 c-4 -8 -15 -15 -25 -15
-27 0 -24 18 4 23 12 2 23 5 24 6 1 0 0 -6 -3 -14z m-4242 -46 c-5 -11 -10
-19 -12 -17 -3 1 -15 -5 -28 -14 -13 -8 -32 -14 -43 -11 -24 7 -25 23 -1 23 9
0 31 9 47 20 38 25 46 25 37 -1z m3413 -11 c21 -62 23 -65 24 -35 2 52 21 27
21 -28 0 -56 -13 -72 -26 -32 l-8 22 -7 -25 c-5 -18 -7 -8 -8 33 -1 76 -25 74
-29 -2 -3 -43 -6 -52 -20 -49 -13 2 -18 16 -20 56 -4 65 15 70 21 5 l4 -48 0
51 c0 27 3 56 7 62 12 19 33 14 41 -10z m-1854 -10 l34 -12 -40 -8 c-22 -4
-61 -7 -87 -7 -45 -1 -48 0 -48 25 0 26 1 27 53 21 29 -4 69 -12 88 -19z m846
8 c0 -8 -9 -14 -19 -13 -23 2 -23 14 0 20 9 3 17 5 18 6 0 0 1 -5 1 -13z m-67
-77 c0 9 4 10 13 4 22 -16 71 3 101 40 16 20 24 23 55 17 48 -9 108 -35 128
-56 19 -19 6 -51 -20 -46 -9 1 -18 -2 -22 -8 -8 -13 -45 -13 -45 1 0 6 -9 8
-20 4 -21 -7 -57 8 -52 22 2 4 -1 9 -7 11 -6 2 -11 -1 -11 -7 0 -6 -9 -11 -21
-11 -31 0 -59 -19 -59 -40 0 -24 28 -40 70 -40 21 0 30 -4 27 -12 -4 -15 -48
-13 -89 4 -35 13 -44 42 -24 73 15 22 14 24 -3 20 -18 -3 -69 43 -100 90 -8
11 7 -2 33 -29 25 -28 46 -44 46 -37z m109 72 c9 -6 10 -11 2 -15 -13 -8 -31
1 -31 15 0 11 11 11 29 0z m661 -38 c0 -13 -4 -23 -10 -23 -5 0 -10 17 -10 38
0 27 3 33 10 22 5 -8 10 -25 10 -37z m70 -21 c0 -36 -4 -52 -9 -43 -6 9 -11
10 -15 2 -4 -6 -11 -11 -15 -11 -9 0 3 93 14 110 14 22 25 -4 25 -58z m1179
42 c26 -33 26 -45 1 -76 -20 -26 -66 -42 -76 -27 -7 12 -24 11 -24 -1 0 -5 6
-10 13 -10 18 0 44 -30 44 -50 0 -8 2 -22 4 -30 3 -12 -9 -16 -58 -18 -43 -2
-63 1 -63 9 0 6 -7 9 -15 5 -8 -3 -15 -1 -15 4 0 6 6 10 13 10 8 0 22 9 32 20
16 17 16 20 3 15 -9 -4 -25 -1 -35 5 -16 10 -16 11 0 6 9 -3 17 -1 17 3 0 5 8
7 18 4 15 -4 18 1 18 30 -1 22 -5 33 -13 30 -18 -7 24 74 44 86 33 19 70 12
92 -15z m-1113 -44 c2 -54 1 -54 -12 -25 l-13 30 -2 -30 -2 -30 -4 28 c-3 19
1 33 13 41 10 8 14 18 9 26 -6 10 -9 9 -16 -1 -7 -11 -9 -10 -9 4 0 12 6 17
18 15 13 -3 17 -14 18 -58z m72 7 c2 -36 -1 -49 -13 -53 -22 -9 -25 -4 -26 47
-2 60 -1 61 19 57 13 -2 18 -15 20 -51z m203 46 c0 -5 3 -19 5 -33 7 -40 -4
-70 -26 -70 -18 0 -20 7 -20 55 0 48 2 55 20 55 11 0 20 -3 21 -7z m459 -77
l25 -29 -25 13 c-29 15 -41 30 -33 43 3 4 6 7 7 5 0 -2 12 -16 26 -32z m-3821
-2 c20 -4 22 -7 11 -14 -8 -5 -25 -7 -38 -3 -16 4 -22 1 -20 -8 2 -7 -10 -17
-25 -23 -24 -9 -31 -7 -43 9 -28 38 -19 50 38 47 29 -1 64 -5 77 -8z m-419
-54 c0 -5 -9 -10 -19 -10 -11 0 -23 -4 -26 -10 -8 -12 -25 -13 -25 -2 0 10 38
30 58 31 6 1 12 -3 12 -9z m840 0 c0 -5 -8 -10 -17 -10 -9 0 -25 -7 -35 -17
-16 -15 -18 -15 -18 0 0 18 26 36 53 37 9 0 17 -4 17 -10z m830 0 c0 -5 -9
-10 -19 -10 -11 0 -23 -4 -26 -10 -3 -5 -11 -10 -16 -10 -16 0 1 21 25 30 29
12 36 12 36 0z m840 2 c0 -4 -16 -12 -35 -18 -37 -12 -47 -2 -17 15 20 12 52
14 52 3z m830 -2 c0 -5 -8 -10 -18 -10 -10 0 -23 -5 -30 -12 -9 -9 -12 -9 -12
0 0 7 10 17 23 22 30 12 37 12 37 0z m840 2 c0 -4 -16 -12 -35 -18 -38 -12
-49 1 -12 16 28 11 47 12 47 2z m-3340 -32 c0 -6 -8 -13 -17 -17 -10 -3 -26
-13 -37 -22 -17 -15 -18 -15 -15 4 6 27 69 59 69 35z m31 -7 c1 -17 2 -17 6 0
8 31 23 18 23 -20 0 -28 -3 -34 -10 -23 -6 9 -10 11 -10 3 0 -7 -7 -10 -15 -7
-9 4 -15 19 -15 35 0 31 19 41 21 12z m400 8 c-7 -5 -11 -13 -9 -17 3 -5 2
-18 -3 -29 -6 -16 -8 -12 -8 18 -1 29 3 37 17 37 13 0 14 -2 3 -9z m46 -21 c1
-16 -3 -32 -9 -36 -7 -5 -9 -2 -5 8 3 9 1 20 -5 26 -6 6 -7 15 -4 21 12 19 21
12 23 -19z m-1332 8 c-11 -6 -28 -18 -37 -26 -10 -9 -18 -10 -18 -4 0 18 30
42 53 42 22 -1 22 -1 2 -12z m1657 -8 c-41 -25 -50 -25 -27 0 10 11 28 20 39
20 17 0 15 -4 -12 -20z m843 3 c-16 -9 -33 -21 -37 -27 -5 -7 -8 -5 -8 5 0 23
21 39 50 39 l25 -1 -30 -16z m830 -2 c-34 -21 -44 -19 -25 4 7 8 22 15 34 15
18 0 17 -2 -9 -19z m840 2 c-16 -9 -33 -21 -37 -27 -5 -7 -8 -5 -8 6 0 20 26
37 55 37 16 0 14 -3 -10 -16z m-3855 -23 c0 -5 -2 -10 -4 -10 -3 0 -8 5 -11
10 -3 6 -1 10 4 10 6 0 11 -4 11 -10z m4090 6 c0 -11 -19 -15 -25 -6 -3 5 1
10 9 10 9 0 16 -2 16 -4z m-3910 -71 l0 -35 -265 0 -265 0 0 29 c0 16 6 32 13
34 6 3 126 6 265 6 l252 1 0 -35z m830 -5 l0 -40 -253 0 c-262 0 -277 2 -277
42 0 33 31 37 283 38 l247 0 0 -40z m840 5 l0 -35 -265 0 -265 0 0 29 c0 16 6
32 13 34 6 3 126 6 265 6 l252 1 0 -35z m830 0 l0 -35 -262 2 c-251 3 -263 4
-266 22 -8 42 18 46 280 46 l248 0 0 -35z m840 0 l0 -35 -265 0 -265 0 0 23
c0 45 9 47 277 47 l253 0 0 -35z m834 13 c13 -50 23 -48 -261 -46 -256 3 -268
4 -271 22 -8 42 18 46 279 46 l247 0 6 -22z m-4679 -168 c3 -5 19 -10 36 -10
19 0 29 -5 29 -15 0 -8 -4 -15 -10 -15 -5 0 -10 6 -10 13 0 8 -3 7 -10 -3 -5
-8 -12 -11 -16 -7 -4 4 -13 2 -20 -4 -17 -14 -34 -3 -34 20 0 29 22 42 35 21z
m287 -15 c6 -29 2 -35 -24 -35 -12 0 -18 7 -18 23 0 43 35 53 42 12z m110 7
c7 -10 20 -22 28 -27 13 -8 13 -7 1 8 -12 15 -11 17 3 17 9 0 16 -8 16 -20 0
-22 -20 -26 -38 -8 -9 9 -12 9 -12 0 0 -7 -9 -12 -20 -12 -14 0 -20 7 -20 23
0 40 20 49 42 19z m429 -14 c-5 -30 -6 -31 -9 -8 -2 14 -9 28 -16 32 -7 5 -3
8 10 8 18 0 20 -5 15 -32z m75 8 c14 4 24 2 24 -5 0 -6 -5 -11 -11 -11 -5 0
-7 -5 -3 -11 4 -8 -1 -9 -17 -4 -13 4 -27 12 -30 18 -4 5 -9 1 -12 -9 -3 -11
-5 -6 -6 14 -1 30 0 32 15 18 10 -10 24 -14 40 -10z m74 14 c-11 -7 -12 -12
-4 -17 9 -6 8 -12 -2 -21 -12 -11 -14 -8 -14 18 0 22 5 30 18 30 14 0 15 -2 2
-10z m242 -15 c3 -14 1 -28 -4 -31 -15 -10 -38 4 -38 24 0 39 35 45 42 7z
m440 -5 c-2 -16 -5 -30 -7 -30 -2 0 -5 14 -7 30 -3 19 0 30 7 30 7 0 10 -11 7
-30z m57 -17 c-1 -17 -2 -17 -6 1 -4 15 -7 16 -14 5 -6 -10 -9 -6 -9 14 0 25
2 27 15 13 8 -8 14 -23 14 -33z m121 16 c0 -29 -1 -29 -17 -13 -16 15 -17 15
-24 -2 -6 -15 -8 -13 -8 9 -1 24 2 27 19 22 11 -4 20 -2 20 4 0 6 2 11 5 11 3
0 5 -14 5 -31z m120 17 c0 -9 7 -12 20 -9 11 3 20 0 20 -6 0 -6 -6 -11 -12
-11 -9 0 -8 -4 2 -10 13 -8 12 -10 -2 -10 -10 0 -18 5 -18 12 0 9 -3 9 -12 0
-29 -29 -53 2 -25 33 16 18 27 19 27 1z m238 -19 c3 -22 -1 -27 -17 -27 -17 0
-21 6 -21 31 0 24 4 30 18 27 10 -2 18 -14 20 -31z m317 23 c3 -6 -1 -7 -9 -4
-11 4 -16 0 -16 -15 0 -12 5 -21 11 -21 5 0 7 5 4 10 -3 6 -1 10 4 10 6 0 11
-7 11 -15 0 -20 -36 -19 -44 1 -11 27 24 58 39 34z m142 -37 c-3 -10 -5 -2 -5
17 0 19 2 27 5 18 2 -10 2 -26 0 -35z m51 20 c-2 -17 -10 -29 -20 -31 -21 -4
-24 22 -5 43 19 22 29 18 25 -12z m38 7 c8 0 14 -9 14 -20 0 -13 -6 -20 -17
-19 -11 0 -13 3 -6 6 10 3 9 8 -2 20 -8 8 -15 20 -14 26 0 9 2 8 6 0 2 -7 11
-13 19 -13z m79 10 c4 -6 1 -9 -6 -8 -7 2 -15 -5 -17 -14 -2 -10 1 -18 7 -18
6 0 11 5 11 11 0 6 7 9 15 5 8 -3 15 -1 15 4 0 6 7 10 15 10 8 0 15 -8 15 -19
0 -15 -8 -18 -41 -18 -42 0 -56 13 -45 42 6 17 22 20 31 5z m524 -4 c7 -8 21
-12 31 -9 14 4 20 0 20 -10 0 -22 -18 -31 -35 -17 -9 7 -15 8 -20 0 -14 -22
-35 -10 -35 20 0 32 19 40 39 16z m203 2 c-5 -7 -12 -22 -14 -33 -3 -14 -6
-11 -9 13 -5 27 -2 32 14 32 14 0 17 -3 9 -12z m633 -18 c0 -16 -6 -26 -17
-28 -14 -3 -18 3 -18 28 0 25 4 31 18 28 11 -2 17 -12 17 -28z m197 0 c-2 -16
-5 -30 -7 -30 -2 0 -5 14 -7 30 -3 19 0 30 7 30 7 0 10 -11 7 -30z m-4272 4
c0 -8 -4 -12 -10 -9 -5 3 -10 1 -10 -4 0 -6 5 -11 10 -11 6 0 10 -4 10 -8 0
-4 -8 -8 -19 -8 -13 0 -17 6 -13 21 4 17 19 34 30 35 1 0 2 -7 2 -16z m3379
-11 c0 -25 -1 -25 -8 -8 -5 11 -7 23 -4 28 8 14 13 7 12 -20z m836 -3 c1 -10
-2 -17 -7 -14 -4 3 -8 15 -8 26 0 26 13 15 15 -12z m-4198 -12 c-3 -7 -5 -2
-5 12 0 14 2 19 5 13 2 -7 2 -19 0 -25z m48 21 c4 -6 4 -13 0 -17 -3 -3 -10 0
-15 7 -6 11 -9 10 -13 -5 -4 -16 -5 -16 -6 4 -1 23 22 31 34 11z m157 -11 c-5
-20 -22 -35 -22 -19 0 5 -2 16 -5 23 -4 9 2 14 13 14 13 0 18 -6 14 -18z m157
0 c-1 -21 -2 -21 -7 -3 l-5 20 -8 -20 c-7 -19 -8 -19 -8 3 -1 13 5 22 14 22 9
0 15 -9 14 -22z m532 7 c7 19 8 19 8 -2 1 -14 -5 -23 -14 -23 -9 0 -15 9 -14
23 1 20 2 20 7 2 l5 -20 8 20z m69 0 c10 -12 10 -19 2 -27 -9 -9 -12 -7 -12
10 0 12 -4 22 -10 22 -5 0 -10 -4 -10 -10 0 -5 -4 -10 -10 -10 -5 0 -10 7 -10
15 0 20 34 19 50 0z m172 -7 c-7 -28 -19 -30 -24 -5 -3 16 0 23 12 23 11 0 15
-6 12 -18z m503 12 c3 -5 -2 -10 -12 -10 -15 0 -16 -2 -3 -11 13 -9 13 -10 0
-6 -20 5 -26 37 -6 37 8 0 18 -4 21 -10z m125 -12 c0 -19 -2 -20 -10 -8 -7 11
-10 11 -10 2 0 -7 -4 -11 -10 -7 -13 8 -1 35 16 35 8 0 14 -10 14 -22z m17
-10 c-3 -7 -5 -2 -5 12 0 14 2 19 5 13 2 -7 2 -19 0 -25z m175 19 c4 -6 4 -15
2 -19 -6 -10 -24 -11 -23 0 3 19 -2 25 -11 12 -8 -13 -11 -13 -19 -1 -7 11
-10 10 -14 -5 -4 -17 -5 -16 -6 3 -1 18 4 22 32 21 17 -1 35 -6 39 -11z m149
4 c7 12 9 11 9 -1 0 -8 -5 -22 -10 -30 -6 -9 -10 -10 -10 -3 0 6 -2 17 -3 25
-2 7 -2 9 1 4 2 -4 8 -2 13 5z m362 -7 c-3 -9 -14 -12 -32 -8 -21 5 -23 3 -11
-6 13 -10 13 -11 0 -7 -8 2 -16 11 -18 19 -2 12 5 16 32 16 25 0 33 -4 29 -14z
m46 -10 c3 -17 2 -17 -15 -4 -11 9 -15 10 -10 3 4 -7 2 -13 -3 -13 -13 0 -13
3 -5 25 8 20 28 14 33 -11z m351 14 c0 -5 -6 -8 -12 -8 -9 0 -8 -4 2 -10 13
-8 12 -10 -2 -10 -10 0 -18 6 -18 13 0 8 -4 7 -10 -3 -8 -13 -10 -12 -10 3 0
9 -4 17 -10 17 -5 0 -11 -8 -11 -17 -1 -15 -2 -14 -7 2 l-5 20 -8 -20 c-7 -19
-8 -19 -8 3 -1 21 3 22 49 20 27 -2 50 -6 50 -10z m449 -10 c-1 -21 -2 -21 -7
-3 l-5 20 -8 -20 c-7 -19 -8 -19 -8 3 -1 13 5 22 14 22 9 0 15 -9 14 -22z
m141 -8 c5 0 11 8 13 18 3 12 5 11 6 -6 1 -17 -4 -23 -16 -20 -10 2 -18 10
-19 18 0 9 1 10 3 3 3 -7 8 -13 13 -13z m43 10 c-3 -11 -7 -20 -9 -20 -2 0 -4
9 -4 20 0 11 4 20 9 20 5 0 7 -9 4 -20z m46 -2 c-1 -21 -2 -21 -7 -3 l-5 20
-8 -20 c-7 -19 -8 -19 -8 3 -1 13 5 22 14 22 9 0 15 -9 14 -22z m610 -1 c-1
-17 -2 -18 -6 -4 -2 9 -9 17 -14 17 -5 0 -9 -8 -9 -17 0 -15 -2 -16 -10 -3 -6
10 -10 11 -10 3 0 -7 -7 -13 -15 -13 -8 0 -15 8 -15 19 0 15 8 19 40 19 35 1
40 -2 39 -21z m142 8 c7 19 8 19 8 -2 1 -14 -5 -23 -14 -23 -9 0 -15 9 -14 23
1 20 2 20 7 2 l5 -20 8 20z m88 -7 c-1 -20 -2 -20 -6 -4 -4 15 -7 16 -14 5 -8
-12 -11 -12 -19 1 -6 10 -10 11 -10 3 0 -7 -4 -13 -10 -13 -5 0 -10 7 -10 15
0 10 11 15 35 15 30 0 35 -3 34 -22z m-3352 6 c-3 -3 -12 -4 -19 -1 -8 3 -5 6
6 6 11 1 17 -2 13 -5z m90 -101 c-3 -10 -5 -2 -5 17 0 19 2 27 5 18 2 -10 2
-26 0 -35z m455 17 c3 -16 1 -30 -4 -30 -4 0 -8 14 -8 30 0 17 2 30 4 30 2 0
6 -13 8 -30z m275 -22 c-4 -9 -6 -7 -6 5 -1 9 -5 17 -10 17 -5 0 -12 -8 -14
-17 -3 -10 -5 -3 -6 15 l-1 33 21 -20 c12 -11 19 -25 16 -33z m829 28 c15 4
24 2 24 -6 0 -6 -4 -8 -10 -5 -5 3 -10 2 -10 -4 0 -5 6 -12 13 -14 6 -3 0 -5
-15 -4 -16 1 -28 7 -28 14 0 19 -18 16 -23 -4 -3 -10 -5 -3 -6 15 -1 30 0 32
15 18 10 -10 24 -14 40 -10z m1594 -6 c0 -19 -5 -30 -14 -30 -25 0 -29 20 -10
40 25 24 24 25 24 -10z m-4390 -5 c0 -18 -5 -25 -20 -25 -15 0 -20 7 -20 25 0
18 5 25 20 25 15 0 20 -7 20 -25z m830 16 c0 -5 2 -15 5 -23 3 -9 -3 -13 -19
-13 -13 0 -23 2 -22 5 2 3 6 13 9 23 7 18 27 24 27 8z m27 -28 c-3 -10 -5 -4
-5 12 0 17 2 24 5 18 2 -7 2 -21 0 -30z m162 7 c0 -14 -3 -19 -6 -12 -2 6 -9
10 -14 6 -5 -3 -9 1 -10 8 0 7 -4 4 -9 -7 -8 -18 -9 -17 -9 6 -1 23 3 27 24
25 20 -1 25 -6 24 -26z m110 -4 c-1 -20 -2 -20 -7 -1 l-5 20 -8 -20 c-7 -17
-8 -17 -8 7 -1 20 3 26 14 22 8 -4 14 -16 14 -28z m181 9 c0 -18 -5 -25 -20
-25 -25 0 -27 37 -2 43 9 3 18 5 20 6 1 0 2 -10 2 -24z m346 9 c-3 -8 -2 -12
4 -9 6 3 10 0 10 -7 0 -8 -9 -14 -20 -14 -13 0 -19 5 -15 14 3 7 5 18 5 23 0
5 5 9 11 9 6 0 8 -7 5 -16z m178 0 c8 -22 8 -26 -3 -20 -5 4 -12 0 -14 -6 -3
-7 -6 -1 -6 15 -1 29 13 37 23 11z m25 -11 c0 -25 -1 -26 -9 -8 -12 27 -12 35
0 35 6 0 10 -12 9 -27z m213 2 c3 -14 1 -25 -3 -25 -5 0 -9 11 -9 25 0 14 2
25 4 25 2 0 6 -11 8 -25z m68 0 c0 -16 -6 -25 -15 -25 -28 0 -18 40 13 49 1 1
2 -10 2 -24z m380 10 c11 -13 15 -13 22 -3 6 8 7 4 3 -12 -11 -38 -25 -48 -25
-17 0 29 -7 33 -30 16 -13 -9 -12 -10 3 -5 9 3 17 1 17 -4 0 -6 -9 -10 -20
-10 -15 0 -20 7 -20 25 0 29 30 35 50 10z m80 5 c-10 -6 -11 -10 -2 -10 6 0
12 -7 12 -15 0 -8 -8 -15 -17 -15 -15 0 -16 2 -3 10 10 6 11 10 3 10 -7 0 -13
7 -13 15 0 8 8 15 18 15 14 0 15 -2 2 -10z m40 -17 c0 -20 -3 -24 -11 -16 -7
7 -9 19 -6 27 10 24 17 19 17 -11z m278 19 c13 11 14 11 8 0 -4 -7 -2 -19 4
-27 9 -11 9 -15 1 -15 -6 0 -11 5 -11 11 0 8 -5 8 -15 -1 -13 -11 -15 -8 -14
16 0 16 3 23 6 16 4 -10 8 -10 21 0z m422 -14 c6 -17 9 -18 9 -6 1 12 9 16 31
16 35 -1 48 -14 30 -31 -9 -9 -15 -7 -25 7 -13 17 -15 17 -21 3 -4 -10 -16
-15 -35 -14 -20 1 -28 6 -24 15 3 8 5 18 5 23 0 18 21 9 30 -13z m210 -3 c0
-16 -6 -25 -15 -25 -28 0 -18 40 13 49 1 1 2 -10 2 -24z m120 0 c0 -18 -5 -25
-20 -25 -15 0 -20 7 -20 25 0 18 5 25 20 25 15 0 20 -7 20 -25z m100 0 c0 -17
-5 -25 -17 -25 -15 0 -15 2 -4 9 8 5 11 16 8 25 -4 9 -2 16 3 16 6 0 10 -11
10 -25z m400 16 c0 -5 2 -16 5 -23 4 -9 -2 -14 -15 -14 -11 0 -20 6 -20 14 0
7 5 10 12 6 8 -5 9 -2 5 9 -3 10 -2 17 3 17 6 0 10 -4 10 -9z m353 -6 c12 -11
17 -12 21 -2 3 6 3 1 0 -13 -4 -14 -11 -29 -17 -35 -6 -7 -8 -7 -5 0 3 6 2 19
-3 30 -6 17 -8 17 -8 3 -1 -11 -9 -18 -21 -18 -15 0 -20 7 -20 25 0 29 29 34
53 10z m87 -10 c0 -17 -5 -25 -17 -24 -11 0 -13 3 -5 6 6 2 12 11 12 18 0 7
-6 16 -12 18 -8 3 -6 6 5 6 12 1 17 -7 17 -24z m-4520 5 c0 -11 -24 -30 -37
-30 -7 0 -13 7 -13 15 0 21 -18 19 -23 -2 -3 -13 -5 -12 -6 5 -1 21 3 23 39
20 22 -1 40 -5 40 -8z m30 -2 c0 -9 4 -8 10 2 5 8 10 11 10 5 0 -17 -14 -30
-32 -31 -20 -2 -20 -2 -12 20 7 19 24 21 24 4z m59 -10 c-1 -21 -2 -21 -7 -3
l-5 20 -8 -20 c-7 -19 -8 -19 -8 3 -1 13 5 22 14 22 9 0 15 -9 14 -22z m721
11 c0 -5 -4 -7 -10 -4 -5 3 -10 2 -10 -4 0 -5 6 -12 13 -14 7 -3 5 -6 -5 -6
-12 -1 -18 6 -18 19 0 11 7 20 15 20 8 0 15 -5 15 -11z m40 -9 c0 -9 -6 -17
-13 -17 -7 0 -13 8 -13 17 0 9 6 17 13 17 7 0 13 -8 13 -17z m140 10 c-13 -9
-13 -11 0 -20 12 -8 9 -9 -12 -8 -18 2 -28 8 -28 18 0 10 10 16 28 18 21 1 24
0 12 -8z m93 -10 c4 -15 0 -20 -14 -20 -10 0 -19 5 -19 11 0 5 5 7 10 4 6 -3
10 -2 10 4 0 5 -6 12 -12 14 -8 4 -7 6 3 6 9 1 19 -8 22 -19z m43 8 c4 -7 3
-8 -4 -4 -7 4 -12 3 -12 -3 0 -5 6 -12 13 -14 7 -3 6 -6 -5 -6 -20 -1 -32 15
-23 29 8 13 22 13 31 -2z m41 -20 c-3 -7 -5 -2 -5 12 0 14 2 19 5 13 2 -7 2
-19 0 -25z m93 21 c0 -5 -4 -7 -10 -4 -5 3 -10 2 -10 -4 0 -5 6 -12 13 -14 7
-3 5 -6 -5 -6 -12 -1 -18 6 -18 19 0 11 7 20 15 20 8 0 15 -5 15 -11z m40 7
c0 -2 -7 -6 -15 -10 -8 -3 -15 -1 -15 4 0 6 7 10 15 10 8 0 15 -2 15 -4z m346
-8 c4 -7 3 -8 -4 -4 -7 4 -12 3 -12 -3 0 -5 6 -12 13 -14 7 -3 6 -6 -5 -6 -20
-1 -32 15 -23 29 8 13 22 13 31 -2z m40 -8 c0 -9 -6 -17 -13 -17 -7 0 -13 8
-13 17 0 9 6 17 13 17 7 0 13 -8 13 -17z m101 -12 c-3 -7 -5 -2 -5 12 0 14 2
19 5 13 2 -7 2 -19 0 -25z m33 22 c-13 -9 -13 -11 0 -20 13 -8 12 -10 -2 -10
-11 0 -18 8 -18 20 0 12 7 20 18 20 14 0 15 -2 2 -10z m100 -10 c0 -11 -7 -20
-15 -20 -8 0 -15 5 -15 11 0 5 5 7 10 4 6 -3 10 -2 10 4 0 5 -6 12 -12 14 -8
3 -6 6 5 6 11 1 17 -6 17 -19z m40 9 c0 -5 -4 -7 -10 -4 -5 3 -10 2 -10 -4 0
-5 6 -12 13 -14 7 -3 5 -6 -5 -6 -12 -1 -18 6 -18 19 0 11 7 20 15 20 8 0 15
-5 15 -11z m47 -21 c-3 -7 -5 -2 -5 12 0 14 2 19 5 13 2 -7 2 -19 0 -25z m89
20 c4 -7 3 -8 -4 -4 -7 4 -12 3 -12 -3 0 -5 6 -12 13 -14 7 -3 6 -6 -5 -6 -20
-1 -32 15 -23 29 8 13 22 13 31 -2z m29 2 c-3 -5 -1 -10 4 -10 6 0 11 -4 11
-10 0 -19 -26 -10 -27 10 -1 11 3 20 8 20 6 0 7 -4 4 -10z m515 -10 c0 -10 -7
-21 -16 -24 -22 -8 -24 -8 -24 8 0 8 -7 16 -15 20 -8 3 -15 1 -15 -3 0 -5 6
-12 13 -14 7 -3 5 -6 -5 -6 -11 -1 -18 6 -18 18 0 15 8 19 40 19 32 1 40 -3
40 -18z m129 -2 c-1 -21 -2 -21 -7 -3 l-5 20 -8 -20 c-7 -19 -8 -19 -8 3 -1
13 5 22 14 22 9 0 15 -9 14 -22z m98 -10 c-3 -7 -5 -2 -5 12 0 14 2 19 5 13 2
-7 2 -19 0 -25z m42 10 c-1 -21 -2 -21 -7 -3 l-5 20 -8 -20 c-7 -19 -8 -19 -8
3 -1 13 5 22 14 22 9 0 15 -9 14 -22z m45 0 c3 -13 1 -27 -3 -31 -14 -14 -31
2 -31 29 0 30 26 32 34 2z m407 7 c7 19 8 19 8 -2 1 -14 -5 -23 -14 -23 -9 0
-15 9 -14 23 1 20 2 20 7 2 l5 -20 8 20z m56 -10 c1 -16 1 -16 -3 -2 -3 9 -9
17 -14 17 -5 0 -11 -8 -13 -17 -3 -13 -5 -12 -6 5 -1 30 33 27 36 -3z m198 15
c11 9 12 7 8 -10 -6 -22 -23 -38 -23 -21 0 5 -2 15 -3 23 -2 7 -2 9 1 5 2 -4
10 -3 17 3z m111 -2 c4 -6 3 -8 -4 -4 -6 3 -13 2 -16 -3 -4 -5 2 -12 11 -14
16 -4 16 -5 1 -6 -19 -1 -32 14 -23 29 8 13 22 13 31 -2z m387 -8 c-3 -11 -7
-20 -9 -20 -2 0 -4 9 -4 20 0 11 4 20 9 20 5 0 7 -9 4 -20z m47 0 c0 -11 -7
-20 -15 -20 -8 0 -15 9 -15 20 0 11 7 20 15 20 8 0 15 -9 15 -20z m30 -10 c5
0 11 8 13 18 4 13 5 11 6 -5 1 -17 -5 -23 -19 -23 -14 0 -20 6 -19 23 1 16 2
18 6 5 2 -10 8 -18 13 -18z m59 8 c-1 -21 -2 -21 -7 -3 l-5 20 -8 -20 c-7 -19
-8 -19 -8 3 -1 13 5 22 14 22 9 0 15 -9 14 -22z m311 11 c0 -5 -4 -7 -10 -4
-5 3 -10 2 -10 -4 0 -5 6 -12 13 -14 7 -3 5 -6 -5 -6 -12 -1 -18 6 -18 19 0
11 7 20 15 20 8 0 15 -5 15 -11z m-3260 -19 c0 -5 -8 -10 -17 -10 -15 0 -16 2
-3 10 19 12 20 12 20 0z m-450 -94 c0 -3 -4 -8 -10 -11 -5 -3 -10 -1 -10 4 0
6 5 11 10 11 6 0 10 -2 10 -4z m3135 -411 l0 -90 -90 0 -90 0 -3 79 c-2 44 -1
85 2 93 4 11 26 13 93 11 l88 -3 0 -90z m-307 0 c0 -21 -3 -23 -14 -14 -11 9
-11 15 -3 25 15 19 17 18 17 -11z m654 0 c3 -15 1 -25 -7 -25 -9 0 -12 28 -6
48 3 9 9 -2 13 -23z m46 -3 c2 -14 -2 -22 -11 -22 -17 0 -26 19 -19 38 7 19
27 9 30 -16z m199 12 c3 -8 0 -21 -7 -27 -10 -9 -12 -9 -7 4 3 9 0 22 -6 28
-8 8 -8 11 1 11 7 0 15 -7 19 -16z"/>
<path d="M4620 5241 c0 -5 -2 -15 -5 -23 -3 -8 3 -13 20 -14 14 -1 25 3 25 8
0 6 7 8 15 4 9 -3 15 0 15 9 0 9 -6 12 -15 9 -9 -4 -15 0 -16 7 0 8 -4 5 -9
-6 -7 -17 -9 -17 -9 -2 -1 17 -21 25 -21 8z"/>
<path d="M570 5240 c0 -5 5 -10 10 -10 6 0 10 5 10 10 0 6 -4 10 -10 10 -5 0
-10 -4 -10 -10z"/>
<path d="M570 5210 c0 -5 5 -10 10 -10 6 0 10 5 10 10 0 6 -4 10 -10 10 -5 0
-10 -4 -10 -10z"/>
<path d="M635 5220 c-4 -6 -3 -16 3 -22 6 -6 12 -6 17 2 4 6 3 16 -3 22 -6 6
-12 6 -17 -2z"/>
<path d="M695 5220 c-4 -6 -3 -16 3 -22 6 -6 12 -6 17 2 4 6 3 16 -3 22 -6 6
-12 6 -17 -2z"/>
<path d="M2734 4526 c-10 -26 0 -51 21 -51 16 0 20 7 20 30 0 33 -30 49 -41
21z"/>
<path d="M1920 4505 c0 -29 3 -36 18 -33 11 2 17 13 17 33 0 20 -6 31 -17 33
-15 3 -18 -4 -18 -33z"/>
<path d="M2104 4526 c-10 -26 0 -51 21 -51 16 0 20 7 20 30 0 33 -30 49 -41
21z"/>
<path d="M2310 4530 c0 -5 9 -10 20 -10 11 0 20 5 20 10 0 6 -9 10 -20 10 -11
0 -20 -4 -20 -10z"/>
<path d="M2487 4493 c-13 -12 -7 -23 13 -23 11 0 20 7 20 15 0 15 -21 21 -33
8z"/>
<path d="M3045 4530 c-4 -6 5 -10 20 -10 15 0 24 4 20 10 -3 6 -12 10 -20 10
-8 0 -17 -4 -20 -10z"/>
<path d="M3167 4493 c-13 -12 -7 -23 13 -23 11 0 20 7 20 15 0 15 -21 21 -33
8z"/>
<path d="M3734 4526 c-10 -26 0 -51 21 -51 16 0 20 7 20 30 0 33 -30 49 -41
21z"/>
<path d="M2887 4323 c-4 -3 -7 -23 -7 -44 0 -62 50 -75 65 -17 11 45 -30 89
-58 61z"/>
<path d="M3472 4258 c2 -21 8 -33 18 -33 10 0 16 12 18 33 3 27 0 32 -18 32
-18 0 -21 -5 -18 -32z"/>
<path d="M1630 4308 c0 -9 -3 -24 -6 -33 -5 -13 -2 -16 12 -13 12 2 18 10 16
23 -5 26 -22 44 -22 23z"/>
<path d="M2050 4310 c0 -15 7 -20 25 -20 18 0 25 5 25 20 0 15 -7 20 -25 20
-18 0 -25 -5 -25 -20z"/>
<path d="M2050 4250 c0 -17 5 -21 28 -18 16 2 27 9 27 18 0 9 -11 16 -27 18
-23 3 -28 -1 -28 -18z"/>
<path d="M2190 4285 c-17 -21 -4 -67 18 -63 22 4 29 63 8 71 -8 3 -20 -1 -26
-8z"/>
<path d="M2312 4258 c2 -21 8 -33 18 -33 10 0 16 12 18 33 3 27 0 32 -18 32
-18 0 -21 -5 -18 -32z"/>
<path d="M790 3440 c0 -5 7 -10 15 -10 8 0 15 5 15 10 0 6 -7 10 -15 10 -8 0
-15 -4 -15 -10z"/>
<path d="M460 3430 c0 -5 5 -10 11 -10 5 0 7 5 4 10 -3 6 -8 10 -11 10 -2 0
-4 -4 -4 -10z"/>
<path d="M865 3430 c-3 -5 -1 -10 4 -10 6 0 11 5 11 10 0 6 -2 10 -4 10 -3 0
-8 -4 -11 -10z"/>
<path d="M4680 3424 c0 -8 5 -12 10 -9 6 4 8 11 5 16 -9 14 -15 11 -15 -7z"/>
<path d="M1661 3124 c0 -11 3 -14 6 -6 3 7 2 16 -1 19 -3 4 -6 -2 -5 -13z"/>
<path d="M1231 3089 c-13 -5 -22 -11 -20 -13 7 -7 59 6 59 15 0 11 -8 11 -39
-2z"/>
<path d="M1461 3050 c-13 -6 -35 -19 -50 -29 -15 -11 -35 -19 -45 -18 -11 1
-21 -5 -23 -13 -4 -13 -3 -13 6 0 5 8 12 12 15 9 12 -11 -20 -39 -47 -41 -15
-1 -26 -7 -24 -13 2 -5 12 -9 21 -7 15 3 16 -1 9 -20 -4 -13 -8 -48 -7 -78 1
-107 67 -176 180 -187 30 -3 51 -9 46 -12 -15 -10 -10 -39 7 -36 10 1 15 10
13 23 -2 13 5 25 17 32 17 9 21 8 21 -4 0 -10 -6 -13 -17 -9 -15 5 -14 3 2
-10 23 -18 39 -22 30 -7 -3 6 2 10 13 10 26 0 34 11 21 27 -9 10 -15 10 -25 2
-31 -26 -11 7 36 57 54 60 67 98 56 166 -10 60 -43 112 -86 137 -43 24 -134
35 -169 21z m118 -105 c17 -17 2 -21 -27 -6 -9 5 -28 14 -42 20 -23 10 -21 11
14 7 22 -3 47 -12 55 -21z m-119 -32 c0 -2 -7 -15 -16 -28 -13 -19 -14 -30 -5
-52 l11 -28 -5 27 c-4 19 2 35 21 57 40 47 93 38 120 -22 13 -27 14 -28 11 -7
-3 14 -8 33 -12 43 -10 24 21 23 35 -2 26 -49 0 -134 -46 -151 -38 -15 -97
-12 -122 6 -44 31 -69 123 -41 151 10 10 49 14 49 6z"/>
<path d="M1480 2870 c-15 -28 4 -60 35 -60 35 0 52 36 29 61 -22 25 -50 24
-64 -1z"/>
<path d="M1500 2616 c0 -8 5 -18 10 -21 6 -3 10 1 10 9 0 8 -4 18 -10 21 -5 3
-10 -1 -10 -9z"/>
<path d="M1384 2545 c-3 -8 -3 -19 1 -25 11 -18 25 -11 25 15 0 27 -17 34 -26
10z"/>
<path d="M1642 2535 c0 -16 2 -22 5 -12 2 9 2 23 0 30 -3 6 -5 -1 -5 -18z"/>
<path d="M1462 2530 c0 -14 2 -19 5 -12 2 6 2 18 0 25 -3 6 -5 1 -5 -13z"/>
<path d="M586 3074 c-10 -25 -7 -34 9 -34 9 0 15 9 15 25 0 28 -15 34 -24 9z"/>
<path d="M2252 2955 c3 -15 12 -20 46 -21 33 -1 42 2 41 15 0 12 -2 12 -6 2
-5 -11 -7 -11 -15 0 -8 11 -11 11 -15 1 -4 -10 -8 -10 -19 -1 -8 6 -14 8 -14
3 0 -5 -5 -2 -11 6 -8 12 -10 12 -7 -5z"/>
<path d="M2350 2950 c0 -11 4 -20 10 -20 5 0 7 7 4 15 -4 8 -2 15 4 15 5 0 12
-7 16 -15 8 -21 25 -19 23 3 0 11 -10 18 -29 19 -22 2 -28 -2 -28 -17z"/>
<path d="M2198 2943 c6 -2 18 -2 25 0 6 3 1 5 -13 5 -14 0 -19 -2 -12 -5z"/>
<path d="M3896 3052 c-2 -4 -1 -23 4 -42 l8 -35 1 43 c1 41 -3 50 -13 34z"/>
<path d="M3960 3040 c0 -11 5 -20 10 -20 6 0 10 9 10 20 0 11 -4 20 -10 20 -5
0 -10 -9 -10 -20z"/>
<path d="M490 2980 c0 -5 7 -10 15 -10 8 0 15 5 15 10 0 6 -7 10 -15 10 -8 0
-15 -4 -15 -10z"/>
<path d="M490 2935 c0 -10 7 -15 18 -13 21 4 19 22 -2 26 -10 2 -16 -3 -16
-13z"/>
<path d="M570 2975 c0 -9 6 -12 15 -9 8 4 15 10 15 15 0 5 -7 9 -15 9 -8 0
-15 -7 -15 -15z"/>
<path d="M644 2976 c-9 -23 0 -51 16 -51 10 0 15 10 15 29 0 32 -21 47 -31 22z"/>
<path d="M4042 2870 c0 -14 2 -19 5 -12 2 6 2 18 0 25 -3 6 -5 1 -5 -13z"/>
<path d="M547 2675 c-15 -11 -16 -13 -2 -19 9 -3 18 1 22 10 8 21 1 25 -20 9z"/>
<path d="M4870 2711 c0 -6 4 -13 10 -16 6 -3 7 1 4 9 -7 18 -14 21 -14 7z"/>
<path d="M3167 2681 c-8 -31 84 -68 129 -51 48 19 13 50 -62 55 -23 2 -47 5
-52 9 -5 3 -12 -2 -15 -13z"/>
<path d="M4960 2700 c0 -9 82 -31 89 -24 8 8 -8 17 -49 24 -22 4 -40 4 -40 0z"/>
<path d="M4956 2665 c-3 -8 9 -15 36 -19 65 -11 68 9 4 24 -25 5 -36 4 -40 -5z"/>
<path d="M3983 2675 c0 -27 2 -38 4 -22 2 15 2 37 0 50 -2 12 -4 0 -4 -28z"/>
<path d="M4193 2675 c0 -22 2 -30 4 -17 2 12 2 30 0 40 -3 9 -5 -1 -4 -23z"/>
<path d="M385 2287 c-4 -10 -5 -21 -1 -24 10 -10 18 4 13 24 -4 17 -4 17 -12
0z"/>
<path d="M774 2286 c-8 -22 3 -33 18 -18 9 9 9 15 0 24 -9 9 -13 7 -18 -6z"/>
<path d="M2575 2290 c-3 -5 -1 -10 4 -10 6 0 11 5 11 10 0 6 -2 10 -4 10 -3 0
-8 -4 -11 -10z"/>
<path d="M3725 2287 c-4 -10 -5 -21 -1 -24 10 -10 18 4 13 24 -4 17 -4 17 -12
0z"/>
<path d="M3770 2270 c0 -5 5 -10 10 -10 6 0 10 5 10 10 0 6 -4 10 -10 10 -5 0
-10 -4 -10 -10z"/>
<path d="M4560 2281 c0 -12 5 -21 10 -21 6 0 10 6 10 14 0 8 -4 18 -10 21 -5
3 -10 -3 -10 -14z"/>
<path d="M1690 2180 c0 -5 5 -10 10 -10 6 0 10 5 10 10 0 6 -4 10 -10 10 -5 0
-10 -4 -10 -10z"/>
<path d="M4770 2180 c0 -5 5 -10 10 -10 6 0 10 5 10 10 0 6 -4 10 -10 10 -5 0
-10 -4 -10 -10z"/>
<path d="M460 2180 c0 -5 5 -10 10 -10 6 0 10 5 10 10 0 6 -4 10 -10 10 -5 0
-10 -4 -10 -10z"/>
<path d="M3800 2180 c0 -5 5 -10 10 -10 6 0 10 5 10 10 0 6 -4 10 -10 10 -5 0
-10 -4 -10 -10z"/>
<path d="M1661 1804 c0 -11 3 -14 6 -6 3 7 2 16 -1 19 -3 4 -6 -2 -5 -13z"/>
<path d="M1392 1790 c0 -14 2 -19 5 -12 2 6 2 18 0 25 -3 6 -5 1 -5 -13z"/>
<path d="M1224 1764 c-17 -14 -17 -15 -1 -10 10 3 25 6 33 6 8 0 14 5 14 10 0
15 -24 12 -46 -6z"/>
<path d="M1358 1323 c7 -3 16 -2 19 1 4 3 -2 6 -13 5 -11 0 -14 -3 -6 -6z"/>
<path d="M1461 1314 c0 -11 3 -14 6 -6 3 7 2 16 -1 19 -3 4 -6 -2 -5 -13z"/>
<path d="M1500 1296 c0 -9 5 -16 10 -16 6 0 10 4 10 9 0 6 -4 13 -10 16 -5 3
-10 -1 -10 -9z"/>
<path d="M1630 1289 c-28 -15 -30 -19 -14 -19 12 0 27 6 34 14 6 8 18 12 26 9
8 -3 14 0 14 6 0 16 -20 13 -60 -10z"/>
<path d="M1434 1255 c-3 -14 -4 -29 0 -32 3 -4 6 1 6 10 0 10 8 17 20 17 13 0
20 6 19 18 0 11 -2 12 -6 4 -4 -10 -8 -10 -19 -2 -10 9 -15 6 -20 -15z"/>
<path d="M1384 1225 c-3 -8 -3 -19 1 -25 11 -18 25 -11 25 15 0 27 -17 34 -26
10z"/>
<path d="M1462 1220 c0 -14 2 -19 5 -12 2 6 2 18 0 25 -3 6 -5 1 -5 -13z"/>
<path d="M1642 1210 c0 -14 2 -19 5 -12 2 6 2 18 0 25 -3 6 -5 1 -5 -13z"/>
<path d="M582 1745 c-1 -16 3 -25 13 -25 9 0 15 10 15 25 0 14 -6 25 -13 25
-7 0 -14 -11 -15 -25z"/>
<path d="M671 1744 c0 -11 3 -14 6 -6 3 7 2 16 -1 19 -3 4 -6 -2 -5 -13z"/>
<path d="M2250 1645 c0 -5 5 -17 10 -25 9 -13 10 -13 10 0 0 9 3 11 8 5 4 -6
19 -11 35 -12 19 -1 27 4 26 16 0 12 -2 12 -6 2 -5 -11 -7 -11 -15 0 -8 11
-11 11 -15 1 -4 -10 -8 -10 -19 -1 -8 6 -14 8 -14 3 0 -5 -5 -2 -10 6 -5 8
-10 11 -10 5z"/>
<path d="M2350 1630 c0 -11 4 -20 9 -20 5 0 7 9 4 20 -3 11 -7 20 -9 20 -2 0
-4 -9 -4 -20z"/>
<path d="M2381 1628 c5 -10 13 -18 17 -18 4 0 8 8 8 18 0 10 -8 18 -17 18 -14
0 -15 -4 -8 -18z"/>
<path d="M2421 1629 c0 -13 3 -18 6 -10 5 11 7 11 14 0 5 -8 9 -9 9 -3 0 6 -7
17 -15 24 -13 10 -15 9 -14 -11z"/>
<path d="M2190 1630 c0 -6 7 -10 15 -10 8 0 15 2 15 4 0 2 -7 6 -15 10 -8 3
-15 1 -15 -4z"/>
<path d="M3896 1732 c-2 -4 -1 -23 4 -42 l8 -35 1 43 c1 41 -3 50 -13 34z"/>
<path d="M3960 1720 c0 -11 5 -20 10 -20 6 0 10 9 10 20 0 11 -4 20 -10 20 -5
0 -10 -9 -10 -20z"/>
<path d="M496 1673 c-11 -11 -6 -23 8 -23 8 0 17 4 20 9 7 10 -19 23 -28 14z"/>
<path d="M493 1618 c2 -7 10 -13 17 -13 7 0 15 6 18 13 2 7 -5 12 -18 12 -13
0 -20 -5 -17 -12z"/>
<path d="M570 1666 c0 -9 7 -16 16 -16 9 0 14 5 12 12 -6 18 -28 21 -28 4z"/>
<path d="M645 1668 c-9 -24 -2 -61 12 -65 20 -7 28 46 10 65 -15 14 -17 14
-22 0z"/>
<path d="M1480 1550 c-15 -28 4 -60 35 -60 35 0 52 36 29 61 -22 25 -50 24
-64 -1z"/>
<path d="M3260 1540 c0 -5 5 -10 10 -10 6 0 10 5 10 10 0 6 -4 10 -10 10 -5 0
-10 -4 -10 -10z"/>
<path d="M4042 1550 c0 -14 2 -19 5 -12 2 6 2 18 0 25 -3 6 -5 1 -5 -13z"/>
<path d="M547 1359 c-9 -6 -17 -14 -17 -19 0 -16 30 -11 37 5 8 21 1 25 -20
14z"/>
<path d="M2178 1403 c6 -2 18 -2 25 0 6 3 1 5 -13 5 -14 0 -19 -2 -12 -5z"/>
<path d="M3167 1358 c-5 -16 4 -23 18 -15 2 1 10 -5 17 -14 16 -21 65 -30 95
-18 49 18 14 47 -73 58 -46 7 -53 5 -57 -11z"/>
<path d="M3141 1354 c0 -11 3 -14 6 -6 3 7 2 16 -1 19 -3 4 -6 -2 -5 -13z"/>
<path d="M4960 1381 c0 -5 15 -13 33 -19 l32 -12 -36 4 c-51 6 -47 -20 4 -28
45 -7 42 -9 51 21 7 23 0 27 -56 37 -16 3 -28 1 -28 -3z"/>
<path d="M3983 1355 c0 -27 2 -38 4 -22 2 15 2 37 0 50 -2 12 -4 0 -4 -28z"/>
<path d="M4193 1355 c0 -22 2 -30 4 -17 2 12 2 30 0 40 -3 9 -5 -1 -4 -23z"/>
<path d="M385 967 c-4 -10 -5 -21 -1 -24 10 -10 18 4 13 24 -4 17 -4 17 -12 0z"/>
<path d="M774 966 c-8 -22 3 -33 18 -18 9 9 9 15 0 24 -9 9 -13 7 -18 -6z"/>
<path d="M2575 970 c3 -5 8 -10 11 -10 2 0 4 5 4 10 0 6 -5 10 -11 10 -5 0 -7
-4 -4 -10z"/>
<path d="M3720 960 c0 -11 5 -20 10 -20 6 0 10 9 10 20 0 11 -4 20 -10 20 -5
0 -10 -9 -10 -20z"/>
<path d="M3770 950 c0 -5 5 -10 10 -10 6 0 10 5 10 10 0 6 -4 10 -10 10 -5 0
-10 -4 -10 -10z"/>
<path d="M4560 961 c0 -12 5 -21 10 -21 6 0 10 6 10 14 0 8 -4 18 -10 21 -5 3
-10 -3 -10 -14z"/>
<path d="M4770 860 c0 -5 5 -10 10 -10 6 0 10 5 10 10 0 6 -4 10 -10 10 -5 0
-10 -4 -10 -10z"/>
<path d="M1690 860 c0 -5 5 -10 10 -10 6 0 10 5 10 10 0 6 -4 10 -10 10 -5 0
-10 -4 -10 -10z"/>
<path d="M3800 860 c0 -5 5 -10 10 -10 6 0 10 5 10 10 0 6 -4 10 -10 10 -5 0
-10 -4 -10 -10z"/>
<path d="M460 860 c0 -5 5 -10 10 -10 6 0 10 5 10 10 0 6 -4 10 -10 10 -5 0
-10 -4 -10 -10z"/>
<path d="M4389 368 c-6 -20 -3 -48 6 -48 8 0 10 10 7 25 -4 21 -10 32 -13 23z"/>
<path d="M4861 344 c0 -11 3 -14 6 -6 3 7 2 16 -1 19 -3 4 -6 -2 -5 -13z"/>
</g>
</svg>
